solid OpenSCAD_Model
  facet normal 0 -1 0
    outer loop
      vertex 0 0 -32.55
      vertex 160.5 0 0
      vertex 0 0 0
    endloop
  endfacet
  facet normal 0 -1 -0
    outer loop
      vertex 160.5 0 0
      vertex 0 0 -32.55
      vertex 160.5 0 -32.55
    endloop
  endfacet
  facet normal 0 0 -1
    outer loop
      vertex 53.5736 73.9892 -30.95
      vertex 33.6995 68.2904 -30.95
      vertex 22.1047 64.9657 -30.95
    endloop
  endfacet
  facet normal -0.490035 0 0.871703
    outer loop
      vertex 9.09232 60.3424 -27.75
      vertex 4.11152 59.6947 -30.55
      vertex 9.09232 2 -27.75
    endloop
  endfacet
  facet normal -0.377187 0.786499 0.489029
    outer loop
      vertex 9.09232 60.3424 -27.75
      vertex 4.06517 59.6887 -30.5761
      vertex 4.11152 59.6947 -30.55
    endloop
  endfacet
  facet normal 0.179639 -0.979325 -0.093021
    outer loop
      vertex 4.06517 59.6887 -30.5761
      vertex 9.09232 60.3424 -27.75
      vertex 3.39999 59.6022 -30.95
    endloop
  endfacet
  facet normal -0.490035 0 0.871703
    outer loop
      vertex 9.09232 2 -27.75
      vertex 4.11152 59.6947 -30.55
      vertex 4.11152 2 -30.55
    endloop
  endfacet
  facet normal -0 0 1
    outer loop
      vertex 9.09232 60.3424 -27.75
      vertex 12.4377 2 -27.75
      vertex 12.4377 61.3017 -27.75
    endloop
  endfacet
  facet normal 0 0 1
    outer loop
      vertex 12.4377 2 -27.75
      vertex 9.09232 60.3424 -27.75
      vertex 9.09232 2 -27.75
    endloop
  endfacet
  facet normal 0.544654 0 0.838661
    outer loop
      vertex 12.4377 61.3017 -27.75
      vertex 12.7375 2 -27.9447
      vertex 12.7375 61.4419 -27.9447
    endloop
  endfacet
  facet normal 0.544654 0 0.838661
    outer loop
      vertex 12.7375 2 -27.9447
      vertex 12.4377 61.3017 -27.75
      vertex 12.4377 2 -27.75
    endloop
  endfacet
  facet normal 0.453979 0 0.891012
    outer loop
      vertex 12.7375 61.4419 -27.9447
      vertex 13.9942 2 -28.585
      vertex 13.9942 61.9808 -28.585
    endloop
  endfacet
  facet normal 0.453979 0 0.891012
    outer loop
      vertex 13.9942 2 -28.585
      vertex 12.7375 61.4419 -27.9447
      vertex 12.7375 2 -27.9447
    endloop
  endfacet
  facet normal 0.358385 0 0.933574
    outer loop
      vertex 13.9942 61.9808 -28.585
      vertex 15.311 2 -29.0905
      vertex 15.311 62.4993 -29.0905
    endloop
  endfacet
  facet normal 0.358385 0 0.933574
    outer loop
      vertex 15.311 2 -29.0905
      vertex 13.9942 61.9808 -28.585
      vertex 13.9942 2 -28.585
    endloop
  endfacet
  facet normal 0.258783 0 0.965935
    outer loop
      vertex 15.311 62.4993 -29.0905
      vertex 16.6734 2 -29.4555
      vertex 16.6734 62.9917 -29.4555
    endloop
  endfacet
  facet normal 0.258783 0 0.965935
    outer loop
      vertex 16.6734 2 -29.4555
      vertex 15.311 62.4993 -29.0905
      vertex 15.311 2 -29.0905
    endloop
  endfacet
  facet normal 0.156472 0 0.987682
    outer loop
      vertex 16.6734 62.9917 -29.4555
      vertex 18.0665 2 -29.6762
      vertex 18.0665 63.4526 -29.6762
    endloop
  endfacet
  facet normal 0.156472 0 0.987682
    outer loop
      vertex 18.0665 2 -29.6762
      vertex 16.6734 62.9917 -29.4555
      vertex 16.6734 2 -29.4555
    endloop
  endfacet
  facet normal 0.0523244 0 0.99863
    outer loop
      vertex 18.0665 63.4526 -29.6762
      vertex 19.475 2 -29.75
      vertex 19.475 63.8771 -29.75
    endloop
  endfacet
  facet normal 0.0523244 0 0.99863
    outer loop
      vertex 19.475 2 -29.75
      vertex 18.0665 63.4526 -29.6762
      vertex 18.0665 2 -29.6762
    endloop
  endfacet
  facet normal -0.0523244 0 0.99863
    outer loop
      vertex 19.475 63.8771 -29.75
      vertex 20.8835 2 -29.6762
      vertex 20.8835 64.2604 -29.6762
    endloop
  endfacet
  facet normal -0.0523244 0 0.99863
    outer loop
      vertex 20.8835 2 -29.6762
      vertex 19.475 63.8771 -29.75
      vertex 19.475 2 -29.75
    endloop
  endfacet
  facet normal -0.156472 0 0.987682
    outer loop
      vertex 20.8835 64.2604 -29.6762
      vertex 22.2766 2 -29.4555
      vertex 22.2766 64.5984 -29.4555
    endloop
  endfacet
  facet normal -0.156472 0 0.987682
    outer loop
      vertex 22.2766 2 -29.4555
      vertex 20.8835 64.2604 -29.6762
      vertex 20.8835 2 -29.6762
    endloop
  endfacet
  facet normal -0.258783 0 0.965935
    outer loop
      vertex 22.2766 64.5984 -29.4555
      vertex 23.639 2 -29.0905
      vertex 23.639 64.8873 -29.0905
    endloop
  endfacet
  facet normal -0.258783 0 0.965935
    outer loop
      vertex 23.639 2 -29.0905
      vertex 22.2766 64.5984 -29.4555
      vertex 22.2766 2 -29.4555
    endloop
  endfacet
  facet normal -0.358385 0 0.933574
    outer loop
      vertex 23.639 64.8873 -29.0905
      vertex 24.9558 2 -28.585
      vertex 24.9558 65.1239 -28.585
    endloop
  endfacet
  facet normal -0.358385 0 0.933574
    outer loop
      vertex 24.9558 2 -28.585
      vertex 23.639 64.8873 -29.0905
      vertex 23.639 2 -29.0905
    endloop
  endfacet
  facet normal -0.453979 0 0.891012
    outer loop
      vertex 24.9558 65.1239 -28.585
      vertex 26.2125 2 -27.9447
      vertex 26.2125 65.3058 -27.9447
    endloop
  endfacet
  facet normal -0.453979 0 0.891012
    outer loop
      vertex 26.2125 2 -27.9447
      vertex 24.9558 65.1239 -28.585
      vertex 24.9558 2 -28.585
    endloop
  endfacet
  facet normal -0.544654 0 0.838661
    outer loop
      vertex 26.2125 65.3058 -27.9447
      vertex 26.5123 2 -27.75
      vertex 26.5123 65.3375 -27.75
    endloop
  endfacet
  facet normal -0.544654 0 0.838661
    outer loop
      vertex 26.5123 2 -27.75
      vertex 26.2125 65.3058 -27.9447
      vertex 26.2125 2 -27.9447
    endloop
  endfacet
  facet normal -0 0 1
    outer loop
      vertex 26.5123 65.3375 -27.75
      vertex 29.8577 2 -27.75
      vertex 29.8577 66.2968 -27.75
    endloop
  endfacet
  facet normal 0 0 1
    outer loop
      vertex 29.8577 2 -27.75
      vertex 26.5123 65.3375 -27.75
      vertex 26.5123 2 -27.75
    endloop
  endfacet
  facet normal -0.293637 0 0.955917
    outer loop
      vertex 29.8577 66.2968 -27.75
      vertex 37.3452 2 -25.45
      vertex 37.3452 67.8027 -25.45
    endloop
  endfacet
  facet normal -0.293637 0 0.955917
    outer loop
      vertex 37.3452 2 -25.45
      vertex 29.8577 66.2968 -27.75
      vertex 29.8577 2 -27.75
    endloop
  endfacet
  facet normal -0 0 1
    outer loop
      vertex 37.3452 67.8027 -25.45
      vertex 40.5754 2 -25.45
      vertex 40.5754 68.7289 -25.45
    endloop
  endfacet
  facet normal 0 0 1
    outer loop
      vertex 40.5754 2 -25.45
      vertex 37.3452 67.8027 -25.45
      vertex 37.3452 2 -25.45
    endloop
  endfacet
  facet normal 0.544533 0 0.83874
    outer loop
      vertex 40.5754 68.7289 -25.45
      vertex 41.1125 2 -25.7987
      vertex 41.1125 68.9801 -25.7987
    endloop
  endfacet
  facet normal 0.544533 0 0.83874
    outer loop
      vertex 41.1125 2 -25.7987
      vertex 40.5754 68.7289 -25.45
      vertex 40.5754 2 -25.45
    endloop
  endfacet
  facet normal 0.453991 0 0.891006
    outer loop
      vertex 41.1125 68.9801 -25.7987
      vertex 42.262 2 -26.3844
      vertex 42.262 69.473 -26.3844
    endloop
  endfacet
  facet normal 0.453991 0 0.891006
    outer loop
      vertex 42.262 2 -26.3844
      vertex 41.1125 68.9801 -25.7987
      vertex 41.1125 2 -25.7987
    endloop
  endfacet
  facet normal 0.358418 0 0.933561
    outer loop
      vertex 42.262 69.473 -26.3844
      vertex 43.4664 2 -26.8468
      vertex 43.4664 69.9472 -26.8468
    endloop
  endfacet
  facet normal 0.358418 0 0.933561
    outer loop
      vertex 43.4664 2 -26.8468
      vertex 42.262 69.473 -26.3844
      vertex 42.262 2 -26.3844
    endloop
  endfacet
  facet normal 0.258825 0 0.965924
    outer loop
      vertex 43.4664 69.9472 -26.8468
      vertex 44.7125 2 -27.1807
      vertex 44.7125 70.3976 -27.1807
    endloop
  endfacet
  facet normal 0.258825 0 0.965924
    outer loop
      vertex 44.7125 2 -27.1807
      vertex 43.4664 69.9472 -26.8468
      vertex 43.4664 2 -26.8468
    endloop
  endfacet
  facet normal 0.156424 0 0.98769
    outer loop
      vertex 44.7125 70.3976 -27.1807
      vertex 45.9867 2 -27.3825
      vertex 45.9867 70.8193 -27.3825
    endloop
  endfacet
  facet normal 0.156424 0 0.98769
    outer loop
      vertex 45.9867 2 -27.3825
      vertex 44.7125 70.3976 -27.1807
      vertex 44.7125 2 -27.1807
    endloop
  endfacet
  facet normal 0.0523229 0 0.99863
    outer loop
      vertex 45.9867 70.8193 -27.3825
      vertex 47.275 2 -27.45
      vertex 47.275 71.2075 -27.45
    endloop
  endfacet
  facet normal 0.0523229 0 0.99863
    outer loop
      vertex 47.275 2 -27.45
      vertex 45.9867 70.8193 -27.3825
      vertex 45.9867 2 -27.3825
    endloop
  endfacet
  facet normal -0.0523229 0 0.99863
    outer loop
      vertex 47.275 71.2075 -27.45
      vertex 48.5633 2 -27.3825
      vertex 48.5633 71.5581 -27.3825
    endloop
  endfacet
  facet normal -0.0523229 0 0.99863
    outer loop
      vertex 48.5633 2 -27.3825
      vertex 47.275 71.2075 -27.45
      vertex 47.275 2 -27.45
    endloop
  endfacet
  facet normal -0.156424 0 0.98769
    outer loop
      vertex 48.5633 71.5581 -27.3825
      vertex 49.8375 2 -27.1807
      vertex 49.8375 71.8672 -27.1807
    endloop
  endfacet
  facet normal -0.156424 0 0.98769
    outer loop
      vertex 49.8375 2 -27.1807
      vertex 48.5633 71.5581 -27.3825
      vertex 48.5633 2 -27.3825
    endloop
  endfacet
  facet normal -0.258825 0 0.965924
    outer loop
      vertex 49.8375 71.8672 -27.1807
      vertex 51.0836 2 -26.8468
      vertex 51.0836 72.1315 -26.8468
    endloop
  endfacet
  facet normal -0.258825 0 0.965924
    outer loop
      vertex 51.0836 2 -26.8468
      vertex 49.8375 71.8672 -27.1807
      vertex 49.8375 2 -27.1807
    endloop
  endfacet
  facet normal -0.358418 0 0.933561
    outer loop
      vertex 51.0836 72.1315 -26.8468
      vertex 52.288 2 -26.3844
      vertex 52.288 72.3479 -26.3844
    endloop
  endfacet
  facet normal -0.358418 0 0.933561
    outer loop
      vertex 52.288 2 -26.3844
      vertex 51.0836 72.1315 -26.8468
      vertex 51.0836 2 -26.8468
    endloop
  endfacet
  facet normal -0.453991 0 0.891006
    outer loop
      vertex 52.288 72.3479 -26.3844
      vertex 53.4375 2 -25.7987
      vertex 53.4375 72.5143 -25.7987
    endloop
  endfacet
  facet normal -0.453991 0 0.891006
    outer loop
      vertex 53.4375 2 -25.7987
      vertex 52.288 72.3479 -26.3844
      vertex 52.288 2 -26.3844
    endloop
  endfacet
  facet normal -0.544604 0 0.838693
    outer loop
      vertex 53.4375 72.5143 -25.7987
      vertex 53.9745 2 -25.45
      vertex 53.9745 72.5711 -25.45
    endloop
  endfacet
  facet normal -0.544604 0 0.838693
    outer loop
      vertex 53.9745 2 -25.45
      vertex 53.4375 72.5143 -25.7987
      vertex 53.4375 2 -25.7987
    endloop
  endfacet
  facet normal -0 0 1
    outer loop
      vertex 53.9745 72.5711 -25.45
      vertex 57.2047 2 -25.45
      vertex 57.2047 73.4973 -25.45
    endloop
  endfacet
  facet normal 0 0 1
    outer loop
      vertex 57.2047 2 -25.45
      vertex 53.9745 72.5711 -25.45
      vertex 53.9745 2 -25.45
    endloop
  endfacet
  facet normal -0.492656 0 0.870224
    outer loop
      vertex 57.2047 73.4973 -25.45
      vertex 63.0338 2 -22.15
      vertex 63.0338 74.2489 -22.15
    endloop
  endfacet
  facet normal -0.492656 0 0.870224
    outer loop
      vertex 63.0338 2 -22.15
      vertex 57.2047 73.4973 -25.45
      vertex 57.2047 2 -25.45
    endloop
  endfacet
  facet normal -0 0 1
    outer loop
      vertex 63.0338 74.2489 -22.15
      vertex 66.06 2 -22.15
      vertex 66.06 75.1167 -22.15
    endloop
  endfacet
  facet normal 0 0 1
    outer loop
      vertex 66.06 2 -22.15
      vertex 63.0338 74.2489 -22.15
      vertex 63.0338 2 -22.15
    endloop
  endfacet
  facet normal 0.544602 0 0.838695
    outer loop
      vertex 66.06 75.1167 -22.15
      vertex 66.9375 2 -22.7198
      vertex 66.9375 75.5271 -22.7198
    endloop
  endfacet
  facet normal 0.544602 0 0.838695
    outer loop
      vertex 66.9375 2 -22.7198
      vertex 66.06 75.1167 -22.15
      vertex 66.06 2 -22.15
    endloop
  endfacet
  facet normal 0.454002 0 0.891001
    outer loop
      vertex 66.9375 75.5271 -22.7198
      vertex 67.9331 2 -23.2271
      vertex 67.9331 75.954 -23.2271
    endloop
  endfacet
  facet normal 0.454002 0 0.891001
    outer loop
      vertex 67.9331 2 -23.2271
      vertex 66.9375 75.5271 -22.7198
      vertex 66.9375 2 -22.7198
    endloop
  endfacet
  facet normal 0.358361 0 0.933583
    outer loop
      vertex 67.9331 75.954 -23.2271
      vertex 68.9762 2 -23.6275
      vertex 68.9762 76.3647 -23.6275
    endloop
  endfacet
  facet normal 0.358361 0 0.933583
    outer loop
      vertex 68.9762 2 -23.6275
      vertex 67.9331 75.954 -23.2271
      vertex 67.9331 2 -23.2271
    endloop
  endfacet
  facet normal 0.258821 0 0.965925
    outer loop
      vertex 68.9762 76.3647 -23.6275
      vertex 70.0555 2 -23.9167
      vertex 70.0555 76.7548 -23.9167
    endloop
  endfacet
  facet normal 0.258821 0 0.965925
    outer loop
      vertex 70.0555 2 -23.9167
      vertex 68.9762 76.3647 -23.6275
      vertex 68.9762 2 -23.6275
    endloop
  endfacet
  facet normal 0.156441 0 0.987687
    outer loop
      vertex 70.0555 76.7548 -23.9167
      vertex 71.1591 2 -24.0915
      vertex 71.1591 77.12 -24.0915
    endloop
  endfacet
  facet normal 0.156441 0 0.987687
    outer loop
      vertex 71.1591 2 -24.0915
      vertex 70.0555 76.7548 -23.9167
      vertex 70.0555 2 -23.9167
    endloop
  endfacet
  facet normal 0.0523522 0 0.998629
    outer loop
      vertex 71.1591 77.12 -24.0915
      vertex 72.275 2 -24.15
      vertex 72.275 77.4563 -24.15
    endloop
  endfacet
  facet normal 0.0523522 0 0.998629
    outer loop
      vertex 72.275 2 -24.15
      vertex 71.1591 77.12 -24.0915
      vertex 71.1591 2 -24.0915
    endloop
  endfacet
  facet normal -0.0523568 0 0.998628
    outer loop
      vertex 72.275 77.4563 -24.15
      vertex 73.3908 2 -24.0915
      vertex 73.3908 77.7599 -24.0915
    endloop
  endfacet
  facet normal -0.0523568 0 0.998628
    outer loop
      vertex 73.3908 2 -24.0915
      vertex 72.275 77.4563 -24.15
      vertex 72.275 2 -24.15
    endloop
  endfacet
  facet normal -0.156441 0 0.987687
    outer loop
      vertex 73.3908 77.7599 -24.0915
      vertex 74.4944 2 -23.9167
      vertex 74.4944 78.0277 -23.9167
    endloop
  endfacet
  facet normal -0.156441 0 0.987687
    outer loop
      vertex 74.4944 2 -23.9167
      vertex 73.3908 77.7599 -24.0915
      vertex 73.3908 2 -24.0915
    endloop
  endfacet
  facet normal -0.258821 0 0.965925
    outer loop
      vertex 74.4944 78.0277 -23.9167
      vertex 75.5737 2 -23.6275
      vertex 75.5737 78.2565 -23.6275
    endloop
  endfacet
  facet normal -0.258821 0 0.965925
    outer loop
      vertex 75.5737 2 -23.6275
      vertex 74.4944 78.0277 -23.9167
      vertex 74.4944 2 -23.9167
    endloop
  endfacet
  facet normal -0.358331 0 0.933594
    outer loop
      vertex 75.5737 78.2565 -23.6275
      vertex 76.6169 2 -23.2271
      vertex 76.6169 78.444 -23.2271
    endloop
  endfacet
  facet normal -0.358331 0 0.933594
    outer loop
      vertex 76.6169 2 -23.2271
      vertex 75.5737 78.2565 -23.6275
      vertex 75.5737 2 -23.6275
    endloop
  endfacet
  facet normal -0.454002 0 0.891001
    outer loop
      vertex 76.6169 78.444 -23.2271
      vertex 77.6125 2 -22.7198
      vertex 77.6125 78.5881 -22.7198
    endloop
  endfacet
  facet normal -0.454002 0 0.891001
    outer loop
      vertex 77.6125 2 -22.7198
      vertex 76.6169 78.444 -23.2271
      vertex 76.6169 2 -23.2271
    endloop
  endfacet
  facet normal -0.544646 0 0.838666
    outer loop
      vertex 77.6125 78.5881 -22.7198
      vertex 78.4899 2 -22.15
      vertex 78.4899 78.6809 -22.15
    endloop
  endfacet
  facet normal -0.544646 0 0.838666
    outer loop
      vertex 78.4899 2 -22.15
      vertex 77.6125 78.5881 -22.7198
      vertex 77.6125 2 -22.7198
    endloop
  endfacet
  facet normal -0 0 1
    outer loop
      vertex 78.4899 78.6809 -22.15
      vertex 81.5162 2 -22.15
      vertex 81.5162 79.5486 -22.15
    endloop
  endfacet
  facet normal 0 0 1
    outer loop
      vertex 81.5162 2 -22.15
      vertex 78.4899 78.6809 -22.15
      vertex 78.4899 2 -22.15
    endloop
  endfacet
  facet normal -0.495916 0 0.86837
    outer loop
      vertex 81.5162 79.5486 -22.15
      vertex 85.7187 2 -19.75
      vertex 85.7187 80.0847 -19.75
    endloop
  endfacet
  facet normal -0.495916 0 0.86837
    outer loop
      vertex 85.7187 2 -19.75
      vertex 81.5162 79.5486 -22.15
      vertex 81.5162 2 -22.15
    endloop
  endfacet
  facet normal -0 0 1
    outer loop
      vertex 85.7187 80.0847 -19.75
      vertex 88.6206 2 -19.75
      vertex 88.6206 80.9168 -19.75
    endloop
  endfacet
  facet normal 0 0 1
    outer loop
      vertex 88.6206 2 -19.75
      vertex 85.7187 80.0847 -19.75
      vertex 85.7187 2 -19.75
    endloop
  endfacet
  facet normal 0.62936 0 0.777114
    outer loop
      vertex 88.6206 80.9168 -19.75
      vertex 88.8557 2 -19.9404
      vertex 88.8557 81.0373 -19.9404
    endloop
  endfacet
  facet normal 0.62936 0 0.777114
    outer loop
      vertex 88.8557 2 -19.9404
      vertex 88.6206 80.9168 -19.75
      vertex 88.6206 2 -19.75
    endloop
  endfacet
  facet normal 0.544655 0 0.83866
    outer loop
      vertex 88.8557 81.0373 -19.9404
      vertex 89.6875 2 -20.4806
      vertex 89.6875 81.4264 -20.4806
    endloop
  endfacet
  facet normal 0.544655 0 0.83866
    outer loop
      vertex 89.6875 2 -20.4806
      vertex 88.8557 81.0373 -19.9404
      vertex 88.8557 2 -19.9404
    endloop
  endfacet
  facet normal 0.453936 0 0.891034
    outer loop
      vertex 89.6875 81.4264 -20.4806
      vertex 90.5712 2 -20.9308
      vertex 90.5712 81.8053 -20.9308
    endloop
  endfacet
  facet normal 0.453936 0 0.891034
    outer loop
      vertex 90.5712 2 -20.9308
      vertex 89.6875 81.4264 -20.4806
      vertex 89.6875 2 -20.4806
    endloop
  endfacet
  facet normal 0.358439 0 0.933553
    outer loop
      vertex 90.5712 81.8053 -20.9308
      vertex 91.4971 2 -21.2863
      vertex 91.4971 82.1698 -21.2863
    endloop
  endfacet
  facet normal 0.358439 0 0.933553
    outer loop
      vertex 91.4971 2 -21.2863
      vertex 90.5712 81.8053 -20.9308
      vertex 90.5712 2 -20.9308
    endloop
  endfacet
  facet normal 0.258755 0 0.965943
    outer loop
      vertex 91.4971 82.1698 -21.2863
      vertex 92.455 2 -21.5429
      vertex 92.455 82.5161 -21.5429
    endloop
  endfacet
  facet normal 0.258755 0 0.965943
    outer loop
      vertex 92.455 2 -21.5429
      vertex 91.4971 82.1698 -21.2863
      vertex 91.4971 2 -21.2863
    endloop
  endfacet
  facet normal 0.15648 0 0.987681
    outer loop
      vertex 92.455 82.5161 -21.5429
      vertex 93.4346 2 -21.6981
      vertex 93.4346 82.8402 -21.6981
    endloop
  endfacet
  facet normal 0.15648 0 0.987681
    outer loop
      vertex 93.4346 2 -21.6981
      vertex 92.455 82.5161 -21.5429
      vertex 92.455 2 -21.5429
    endloop
  endfacet
  facet normal 0.0523313 0 0.99863
    outer loop
      vertex 93.4346 82.8402 -21.6981
      vertex 94.425 2 -21.75
      vertex 94.425 83.1387 -21.75
    endloop
  endfacet
  facet normal 0.0523313 0 0.99863
    outer loop
      vertex 94.425 2 -21.75
      vertex 93.4346 82.8402 -21.6981
      vertex 93.4346 2 -21.6981
    endloop
  endfacet
  facet normal -0.0523313 0 0.99863
    outer loop
      vertex 94.425 83.1387 -21.75
      vertex 95.4154 2 -21.6981
      vertex 95.4154 83.4082 -21.6981
    endloop
  endfacet
  facet normal -0.0523313 0 0.99863
    outer loop
      vertex 95.4154 2 -21.6981
      vertex 94.425 83.1387 -21.75
      vertex 94.425 2 -21.75
    endloop
  endfacet
  facet normal -0.15648 0 0.987681
    outer loop
      vertex 95.4154 83.4082 -21.6981
      vertex 96.395 2 -21.5429
      vertex 96.395 83.6458 -21.5429
    endloop
  endfacet
  facet normal -0.15648 0 0.987681
    outer loop
      vertex 96.395 2 -21.5429
      vertex 95.4154 83.4082 -21.6981
      vertex 95.4154 2 -21.6981
    endloop
  endfacet
  facet normal -0.258755 0 0.965943
    outer loop
      vertex 96.395 83.6458 -21.5429
      vertex 97.3529 2 -21.2863
      vertex 97.3529 83.849 -21.2863
    endloop
  endfacet
  facet normal -0.258755 0 0.965943
    outer loop
      vertex 97.3529 2 -21.2863
      vertex 96.395 83.6458 -21.5429
      vertex 96.395 2 -21.5429
    endloop
  endfacet
  facet normal -0.358439 0 0.933553
    outer loop
      vertex 97.3529 83.849 -21.2863
      vertex 98.2788 2 -20.9308
      vertex 98.2788 84.0154 -20.9308
    endloop
  endfacet
  facet normal -0.358439 0 0.933553
    outer loop
      vertex 98.2788 2 -20.9308
      vertex 97.3529 83.849 -21.2863
      vertex 97.3529 2 -21.2863
    endloop
  endfacet
  facet normal -0.453936 0 0.891034
    outer loop
      vertex 98.2788 84.0154 -20.9308
      vertex 99.1625 2 -20.4806
      vertex 99.1625 84.1433 -20.4806
    endloop
  endfacet
  facet normal -0.453936 0 0.891034
    outer loop
      vertex 99.1625 2 -20.4806
      vertex 98.2788 84.0154 -20.9308
      vertex 98.2788 2 -20.9308
    endloop
  endfacet
  facet normal -0.544655 0 0.83866
    outer loop
      vertex 99.1625 84.1433 -20.4806
      vertex 99.9943 2 -19.9404
      vertex 99.9943 84.2312 -19.9404
    endloop
  endfacet
  facet normal -0.544655 0 0.83866
    outer loop
      vertex 99.9943 2 -19.9404
      vertex 99.1625 84.1433 -20.4806
      vertex 99.1625 2 -20.4806
    endloop
  endfacet
  facet normal -0.630007 0 0.776589
    outer loop
      vertex 99.9943 84.2312 -19.9404
      vertex 100.229 2 -19.75
      vertex 100.229 84.2456 -19.75
    endloop
  endfacet
  facet normal -0.630007 0 0.776589
    outer loop
      vertex 100.229 2 -19.75
      vertex 99.9943 84.2312 -19.9404
      vertex 99.9943 2 -19.9404
    endloop
  endfacet
  facet normal -0 0 1
    outer loop
      vertex 100.229 84.2456 -19.75
      vertex 103.131 2 -19.75
      vertex 103.131 85.0777 -19.75
    endloop
  endfacet
  facet normal 0 0 1
    outer loop
      vertex 103.131 2 -19.75
      vertex 100.229 84.2456 -19.75
      vertex 100.229 2 -19.75
    endloop
  endfacet
  facet normal -0.189768 0 0.981829
    outer loop
      vertex 103.131 85.0777 -19.75
      vertex 106.494 2 -19.1
      vertex 106.494 85.8608 -19.1
    endloop
  endfacet
  facet normal -0.189768 0 0.981829
    outer loop
      vertex 106.494 2 -19.1
      vertex 103.131 85.0777 -19.75
      vertex 103.131 2 -19.75
    endloop
  endfacet
  facet normal -0 0 1
    outer loop
      vertex 106.494 85.8608 -19.1
      vertex 109.358 2 -19.1
      vertex 109.358 86.682 -19.1
    endloop
  endfacet
  facet normal 0 0 1
    outer loop
      vertex 109.358 2 -19.1
      vertex 106.494 85.8608 -19.1
      vertex 106.494 2 -19.1
    endloop
  endfacet
  facet normal 0.605065 0 0.796176
    outer loop
      vertex 109.358 86.682 -19.1
      vertex 109.915 2 -19.5233
      vertex 109.915 86.9597 -19.5233
    endloop
  endfacet
  facet normal 0.605065 0 0.796176
    outer loop
      vertex 109.915 2 -19.5233
      vertex 109.358 86.682 -19.1
      vertex 109.358 2 -19.1
    endloop
  endfacet
  facet normal 0.515534 0 0.856869
    outer loop
      vertex 109.915 86.9597 -19.5233
      vertex 110.764 2 -20.0341
      vertex 110.764 87.3455 -20.0341
    endloop
  endfacet
  facet normal 0.515534 0 0.856869
    outer loop
      vertex 110.764 2 -20.0341
      vertex 109.915 86.9597 -19.5233
      vertex 109.915 2 -19.5233
    endloop
  endfacet
  facet normal 0.419954 0 0.907545
    outer loop
      vertex 110.764 87.3455 -20.0341
      vertex 111.663 2 -20.4501
      vertex 111.663 87.7193 -20.4501
    endloop
  endfacet
  facet normal 0.419954 0 0.907545
    outer loop
      vertex 111.663 2 -20.4501
      vertex 110.764 87.3455 -20.0341
      vertex 110.764 2 -20.0341
    endloop
  endfacet
  facet normal 0.319314 0 0.947649
    outer loop
      vertex 111.663 87.7193 -20.4501
      vertex 112.602 2 -20.7665
      vertex 112.602 88.0767 -20.7665
    endloop
  endfacet
  facet normal 0.319314 0 0.947649
    outer loop
      vertex 112.602 2 -20.7665
      vertex 111.663 87.7193 -20.4501
      vertex 111.663 2 -20.4501
    endloop
  endfacet
  facet normal 0.2149 0 0.976636
    outer loop
      vertex 112.602 88.0767 -20.7665
      vertex 113.57 2 -20.9795
      vertex 113.57 88.4136 -20.9795
    endloop
  endfacet
  facet normal 0.2149 0 0.976636
    outer loop
      vertex 113.57 2 -20.9795
      vertex 112.602 88.0767 -20.7665
      vertex 112.602 2 -20.7665
    endloop
  endfacet
  facet normal 0.108094 0 0.994141
    outer loop
      vertex 113.57 88.4136 -20.9795
      vertex 114.555 2 -21.0866
      vertex 114.555 88.7258 -21.0866
    endloop
  endfacet
  facet normal 0.108094 0 0.994141
    outer loop
      vertex 114.555 2 -21.0866
      vertex 113.57 88.4136 -20.9795
      vertex 113.57 2 -20.9795
    endloop
  endfacet
  facet normal -0 0 1
    outer loop
      vertex 114.555 88.7258 -21.0866
      vertex 115.545 2 -21.0866
      vertex 115.545 89.0099 -21.0866
    endloop
  endfacet
  facet normal 0 0 1
    outer loop
      vertex 115.545 2 -21.0866
      vertex 114.555 88.7258 -21.0866
      vertex 114.555 2 -21.0866
    endloop
  endfacet
  facet normal -0.108094 0 0.994141
    outer loop
      vertex 115.545 89.0099 -21.0866
      vertex 116.53 2 -20.9795
      vertex 116.53 89.2625 -20.9795
    endloop
  endfacet
  facet normal -0.108094 0 0.994141
    outer loop
      vertex 116.53 2 -20.9795
      vertex 115.545 89.0099 -21.0866
      vertex 115.545 2 -21.0866
    endloop
  endfacet
  facet normal -0.2149 0 0.976636
    outer loop
      vertex 116.53 89.2625 -20.9795
      vertex 117.498 2 -20.7665
      vertex 117.498 89.4806 -20.7665
    endloop
  endfacet
  facet normal -0.2149 0 0.976636
    outer loop
      vertex 117.498 2 -20.7665
      vertex 116.53 89.2625 -20.9795
      vertex 116.53 2 -20.9795
    endloop
  endfacet
  facet normal -0.319314 0 0.947649
    outer loop
      vertex 117.498 89.4806 -20.7665
      vertex 118.437 2 -20.4501
      vertex 118.437 89.6616 -20.4501
    endloop
  endfacet
  facet normal -0.319314 0 0.947649
    outer loop
      vertex 118.437 2 -20.4501
      vertex 117.498 89.4806 -20.7665
      vertex 117.498 2 -20.7665
    endloop
  endfacet
  facet normal -0.419954 0 0.907545
    outer loop
      vertex 118.437 89.6616 -20.4501
      vertex 119.336 2 -20.0341
      vertex 119.336 89.8035 -20.0341
    endloop
  endfacet
  facet normal -0.419954 0 0.907545
    outer loop
      vertex 119.336 2 -20.0341
      vertex 118.437 89.6616 -20.4501
      vertex 118.437 2 -20.4501
    endloop
  endfacet
  facet normal -0.515534 0 0.856869
    outer loop
      vertex 119.336 89.8035 -20.0341
      vertex 120.185 2 -19.5233
      vertex 120.185 89.9045 -19.5233
    endloop
  endfacet
  facet normal -0.515534 0 0.856869
    outer loop
      vertex 120.185 2 -19.5233
      vertex 119.336 89.8035 -20.0341
      vertex 119.336 2 -20.0341
    endloop
  endfacet
  facet normal -0.605065 0 0.796176
    outer loop
      vertex 120.185 89.9045 -19.5233
      vertex 120.742 2 -19.1
      vertex 120.742 89.9462 -19.1
    endloop
  endfacet
  facet normal -0.605065 0 0.796176
    outer loop
      vertex 120.742 2 -19.1
      vertex 120.185 89.9045 -19.5233
      vertex 120.185 2 -19.5233
    endloop
  endfacet
  facet normal -0 0 1
    outer loop
      vertex 120.742 89.9462 -19.1
      vertex 123.606 2 -19.1
      vertex 123.606 90.7674 -19.1
    endloop
  endfacet
  facet normal 0 0 1
    outer loop
      vertex 123.606 2 -19.1
      vertex 120.742 89.9462 -19.1
      vertex 120.742 2 -19.1
    endloop
  endfacet
  facet normal -0.323497 0 0.946229
    outer loop
      vertex 123.606 90.7674 -19.1
      vertex 126.531 2 -18.1
      vertex 126.531 91.3276 -18.1
    endloop
  endfacet
  facet normal -0.323497 0 0.946229
    outer loop
      vertex 126.531 2 -18.1
      vertex 123.606 90.7674 -19.1
      vertex 123.606 2 -19.1
    endloop
  endfacet
  facet normal -0 0 1
    outer loop
      vertex 126.531 91.3276 -18.1
      vertex 129.332 2 -18.1
      vertex 129.332 92.1306 -18.1
    endloop
  endfacet
  facet normal 0 0 1
    outer loop
      vertex 129.332 2 -18.1
      vertex 126.531 91.3276 -18.1
      vertex 126.531 2 -18.1
    endloop
  endfacet
  facet normal 0.610547 0 0.79198
    outer loop
      vertex 129.332 92.1306 -18.1
      vertex 129.968 2 -18.5903
      vertex 129.968 92.4496 -18.5903
    endloop
  endfacet
  facet normal 0.610547 0 0.79198
    outer loop
      vertex 129.968 2 -18.5903
      vertex 129.332 92.1306 -18.1
      vertex 129.332 2 -18.1
    endloop
  endfacet
  facet normal 0.516729 0 0.856149
    outer loop
      vertex 129.968 92.4496 -18.5903
      vertex 130.813 2 -19.1003
      vertex 130.813 92.8343 -19.1003
    endloop
  endfacet
  facet normal 0.516729 0 0.856149
    outer loop
      vertex 130.813 2 -19.1003
      vertex 129.968 92.4496 -18.5903
      vertex 129.968 2 -18.5903
    endloop
  endfacet
  facet normal 0.415198 0 0.909731
    outer loop
      vertex 130.813 92.8343 -19.1003
      vertex 131.712 2 -19.5106
      vertex 131.712 93.2063 -19.5106
    endloop
  endfacet
  facet normal 0.415198 0 0.909731
    outer loop
      vertex 131.712 2 -19.5106
      vertex 130.813 92.8343 -19.1003
      vertex 130.813 2 -19.1003
    endloop
  endfacet
  facet normal 0.309109 0 0.951027
    outer loop
      vertex 131.712 93.2063 -19.5106
      vertex 132.651 2 -19.8158
      vertex 132.651 93.5607 -19.8158
    endloop
  endfacet
  facet normal 0.309109 0 0.951027
    outer loop
      vertex 132.651 2 -19.8158
      vertex 131.712 93.2063 -19.5106
      vertex 131.712 2 -19.5106
    endloop
  endfacet
  facet normal 0.198549 0 0.980091
    outer loop
      vertex 132.651 93.5607 -19.8158
      vertex 133.619 2 -20.0119
      vertex 133.619 93.8929 -20.0119
    endloop
  endfacet
  facet normal 0.198549 0 0.980091
    outer loop
      vertex 133.619 2 -20.0119
      vertex 132.651 93.5607 -19.8158
      vertex 132.651 2 -19.8158
    endloop
  endfacet
  facet normal 0.0856596 0 0.996324
    outer loop
      vertex 133.619 93.8929 -20.0119
      vertex 134.603 2 -20.0965
      vertex 134.603 94.1986 -20.0965
    endloop
  endfacet
  facet normal 0.0856596 0 0.996324
    outer loop
      vertex 134.603 2 -20.0965
      vertex 133.619 93.8929 -20.0119
      vertex 133.619 2 -20.0119
    endloop
  endfacet
  facet normal -0.0285598 0 0.999592
    outer loop
      vertex 134.603 94.1986 -20.0965
      vertex 135.59 2 -20.0683
      vertex 135.59 94.4738 -20.0683
    endloop
  endfacet
  facet normal -0.0285598 0 0.999592
    outer loop
      vertex 135.59 2 -20.0683
      vertex 134.603 94.1986 -20.0965
      vertex 134.603 2 -20.0965
    endloop
  endfacet
  facet normal -0.1423 0 0.989824
    outer loop
      vertex 135.59 94.4738 -20.0683
      vertex 136.568 2 -19.9277
      vertex 136.568 94.715 -19.9277
    endloop
  endfacet
  facet normal -0.1423 0 0.989824
    outer loop
      vertex 136.568 2 -19.9277
      vertex 135.59 94.4738 -20.0683
      vertex 135.59 2 -20.0683
    endloop
  endfacet
  facet normal -0.254289 0 0.967128
    outer loop
      vertex 136.568 94.715 -19.9277
      vertex 137.523 2 -19.6766
      vertex 137.523 94.9189 -19.6766
    endloop
  endfacet
  facet normal -0.254289 0 0.967128
    outer loop
      vertex 137.523 2 -19.6766
      vertex 136.568 94.715 -19.9277
      vertex 136.568 2 -19.9277
    endloop
  endfacet
  facet normal -0.362906 0 0.931826
    outer loop
      vertex 137.523 94.9189 -19.6766
      vertex 138.443 2 -19.3183
      vertex 138.443 95.0829 -19.3183
    endloop
  endfacet
  facet normal -0.362906 0 0.931826
    outer loop
      vertex 138.443 2 -19.3183
      vertex 137.523 94.9189 -19.6766
      vertex 137.523 2 -19.6766
    endloop
  endfacet
  facet normal -0.46646 0 0.884543
    outer loop
      vertex 138.443 95.0829 -19.3183
      vertex 139.317 2 -18.8574
      vertex 139.317 95.2049 -18.8574
    endloop
  endfacet
  facet normal -0.46646 0 0.884543
    outer loop
      vertex 139.317 2 -18.8574
      vertex 138.443 95.0829 -19.3183
      vertex 138.443 2 -19.3183
    endloop
  endfacet
  facet normal -0.564524 0 0.825417
    outer loop
      vertex 139.317 95.2049 -18.8574
      vertex 140.132 2 -18.3
      vertex 140.132 95.2833 -18.3
    endloop
  endfacet
  facet normal -0.564524 0 0.825417
    outer loop
      vertex 140.132 2 -18.3
      vertex 139.317 95.2049 -18.8574
      vertex 139.317 2 -18.8574
    endloop
  endfacet
  facet normal -0.654557 0 0.756013
    outer loop
      vertex 140.132 95.2833 -18.3
      vertex 140.363 2 -18.1
      vertex 140.363 95.2937 -18.1
    endloop
  endfacet
  facet normal -0.654557 0 0.756013
    outer loop
      vertex 140.363 2 -18.1
      vertex 140.132 95.2833 -18.3
      vertex 140.132 2 -18.3
    endloop
  endfacet
  facet normal -0 0 1
    outer loop
      vertex 140.363 95.2937 -18.1
      vertex 143.169 2 -18.1
      vertex 143.169 96.0983 -18.1
    endloop
  endfacet
  facet normal 0 0 1
    outer loop
      vertex 143.169 2 -18.1
      vertex 140.363 95.2937 -18.1
      vertex 140.363 2 -18.1
    endloop
  endfacet
  facet normal 0.389786 -0.91356 -0.116083
    outer loop
      vertex 143.169 96.0983 -18.1
      vertex 156.666 103.439 -30.55
      vertex 157.1 103.675 -30.95
    endloop
  endfacet
  facet normal 0.678022 0 0.735041
    outer loop
      vertex 143.169 96.0983 -18.1
      vertex 156.666 2 -30.55
      vertex 156.666 103.439 -30.55
    endloop
  endfacet
  facet normal 0.678022 0 0.735041
    outer loop
      vertex 156.666 2 -30.55
      vertex 143.169 96.0983 -18.1
      vertex 143.169 2 -18.1
    endloop
  endfacet
  facet normal -0.266243 0.928506 0.258827
    outer loop
      vertex 22.1047 64.9657 -30.95
      vertex 29.8577 66.2968 -27.75
      vertex 53.5736 73.9892 -30.95
    endloop
  endfacet
  facet normal -0.266285 0.92846 0.258949
    outer loop
      vertex 29.8577 66.2968 -27.75
      vertex 22.1047 64.9657 -30.95
      vertex 22.1342 64.8626 -30.55
    endloop
  endfacet
  facet normal -0.266247 0.928509 0.258812
    outer loop
      vertex 62.2297 76.4713 -30.95
      vertex 74.4944 78.0277 -23.9167
      vertex 93.6986 85.4949 -30.95
    endloop
  endfacet
  facet normal -0.266205 0.928543 0.258732
    outer loop
      vertex 74.4944 78.0277 -23.9167
      vertex 62.2297 76.4713 -30.95
      vertex 62.2592 76.3683 -30.55
    endloop
  endfacet
  facet normal -0.266244 0.928512 0.258804
    outer loop
      vertex 102.355 87.977 -30.95
      vertex 116.53 89.2625 -20.9795
      vertex 133.824 97.0005 -30.95
    endloop
  endfacet
  facet normal -0.266135 0.928589 0.258639
    outer loop
      vertex 116.53 89.2625 -20.9795
      vertex 102.355 87.977 -30.95
      vertex 102.384 87.8739 -30.55
    endloop
  endfacet
  facet normal -0.266215 0.92841 0.259201
    outer loop
      vertex 143.169 96.0983 -18.1
      vertex 140.132 95.2833 -18.3
      vertex 140.363 95.2937 -18.1
    endloop
  endfacet
  facet normal -0.266219 0.928563 0.258646
    outer loop
      vertex 143.169 96.0983 -18.1
      vertex 139.317 95.2049 -18.8574
      vertex 140.132 95.2833 -18.3
    endloop
  endfacet
  facet normal -0.266242 0.928506 0.258829
    outer loop
      vertex 142.509 99.3796 -30.55
      vertex 139.317 95.2049 -18.8574
      vertex 143.169 96.0983 -18.1
    endloop
  endfacet
  facet normal -0.266125 0.928528 0.258869
    outer loop
      vertex 139.317 95.2049 -18.8574
      vertex 142.509 99.3796 -30.55
      vertex 138.443 95.0829 -19.3183
    endloop
  endfacet
  facet normal -0.266246 0.92845 0.259025
    outer loop
      vertex 132.651 93.5607 -19.8158
      vertex 117.498 89.4806 -20.7665
      vertex 118.437 89.6616 -20.4501
    endloop
  endfacet
  facet normal -0.266282 0.928495 0.258825
    outer loop
      vertex 133.853 96.8975 -30.55
      vertex 134.603 94.1986 -20.0965
      vertex 135.59 94.4738 -20.0683
    endloop
  endfacet
  facet normal -0.266246 0.928506 0.258822
    outer loop
      vertex 133.619 93.8929 -20.0119
      vertex 133.853 96.8975 -30.55
      vertex 117.498 89.4806 -20.7665
    endloop
  endfacet
  facet normal -0.266503 0.928544 0.258422
    outer loop
      vertex 133.824 97.0005 -30.95
      vertex 117.498 89.4806 -20.7665
      vertex 133.853 96.8975 -30.55
    endloop
  endfacet
  facet normal -0.266419 0.928387 0.259071
    outer loop
      vertex 102.384 87.8739 -30.55
      vertex 114.555 88.7258 -21.0866
      vertex 115.545 89.0099 -21.0866
    endloop
  endfacet
  facet normal -0.266237 0.928508 0.258826
    outer loop
      vertex 114.555 88.7258 -21.0866
      vertex 102.384 87.8739 -30.55
      vertex 97.3529 83.849 -21.2863
    endloop
  endfacet
  facet normal -0.266289 0.928502 0.258795
    outer loop
      vertex 97.3529 83.849 -21.2863
      vertex 102.384 87.8739 -30.55
      vertex 96.395 83.6458 -21.5429
    endloop
  endfacet
  facet normal -0.266251 0.928505 0.258822
    outer loop
      vertex 93.7281 85.3918 -30.55
      vertex 96.395 83.6458 -21.5429
      vertex 102.384 87.8739 -30.55
    endloop
  endfacet
  facet normal -0.26623 0.928538 0.258726
    outer loop
      vertex 81.5162 79.5486 -22.15
      vertex 77.6125 78.5881 -22.7198
      vertex 78.4899 78.6809 -22.15
    endloop
  endfacet
  facet normal -0.266251 0.928508 0.258812
    outer loop
      vertex 90.5712 81.8053 -20.9308
      vertex 93.7281 85.3918 -30.55
      vertex 81.5162 79.5486 -22.15
    endloop
  endfacet
  facet normal -0.266214 0.928518 0.258814
    outer loop
      vertex 96.395 83.6458 -21.5429
      vertex 93.7281 85.3918 -30.55
      vertex 95.4154 83.4082 -21.6981
    endloop
  endfacet
  facet normal -0.266152 0.928498 0.258949
    outer loop
      vertex 93.6986 85.4949 -30.95
      vertex 81.5162 79.5486 -22.15
      vertex 93.7281 85.3918 -30.55
    endloop
  endfacet
  facet normal -0.266173 0.928501 0.258918
    outer loop
      vertex 117.498 89.4806 -20.7665
      vertex 133.824 97.0005 -30.95
      vertex 116.53 89.2625 -20.9795
    endloop
  endfacet
  facet normal -0.266223 0.928515 0.258815
    outer loop
      vertex 95.4154 83.4082 -21.6981
      vertex 93.7281 85.3918 -30.55
      vertex 94.425 83.1387 -21.75
    endloop
  endfacet
  facet normal -0.266231 0.928534 0.258738
    outer loop
      vertex 81.5162 79.5486 -22.15
      vertex 76.6169 78.444 -23.2271
      vertex 77.6125 78.5881 -22.7198
    endloop
  endfacet
  facet normal -0.266244 0.928506 0.258827
    outer loop
      vertex 81.5162 79.5486 -22.15
      vertex 93.6986 85.4949 -30.95
      vertex 76.6169 78.444 -23.2271
    endloop
  endfacet
  facet normal -0.266213 0.928532 0.258764
    outer loop
      vertex 62.2592 76.3683 -30.55
      vertex 72.275 77.4563 -24.15
      vertex 73.3908 77.7599 -24.0915
    endloop
  endfacet
  facet normal -0.266235 0.928503 0.258846
    outer loop
      vertex 76.6169 78.444 -23.2271
      vertex 93.6986 85.4949 -30.95
      vertex 75.5737 78.2565 -23.6275
    endloop
  endfacet
  facet normal -0.266233 0.928512 0.258817
    outer loop
      vertex 53.6031 73.8862 -30.55
      vertex 53.9745 72.5711 -25.45
      vertex 57.2047 73.4973 -25.45
    endloop
  endfacet
  facet normal -0.266314 0.928449 0.258957
    outer loop
      vertex 74.4944 78.0277 -23.9167
      vertex 62.2592 76.3683 -30.55
      vertex 73.3908 77.7599 -24.0915
    endloop
  endfacet
  facet normal -0.266247 0.928506 0.258822
    outer loop
      vertex 72.275 77.4563 -24.15
      vertex 62.2592 76.3683 -30.55
      vertex 57.2047 73.4973 -25.45
    endloop
  endfacet
  facet normal -0.266245 0.928506 0.258824
    outer loop
      vertex 53.6031 73.8862 -30.55
      vertex 57.2047 73.4973 -25.45
      vertex 62.2592 76.3683 -30.55
    endloop
  endfacet
  facet normal -0.266272 0.9285 0.258817
    outer loop
      vertex 53.9745 72.5711 -25.45
      vertex 53.6031 73.8862 -30.55
      vertex 53.4375 72.5143 -25.7987
    endloop
  endfacet
  facet normal -0.266281 0.928498 0.258816
    outer loop
      vertex 53.4375 72.5143 -25.7987
      vertex 53.6031 73.8862 -30.55
      vertex 52.288 72.3479 -26.3844
    endloop
  endfacet
  facet normal -0.266252 0.92851 0.258801
    outer loop
      vertex 29.8577 66.2968 -27.75
      vertex 26.2125 65.3058 -27.9447
      vertex 26.5123 65.3375 -27.75
    endloop
  endfacet
  facet normal -0.266341 0.928533 0.258629
    outer loop
      vertex 45.9867 70.8193 -27.3825
      vertex 53.5736 73.9892 -30.95
      vertex 44.7125 70.3976 -27.1807
    endloop
  endfacet
  facet normal -0.266259 0.928492 0.258861
    outer loop
      vertex 24.9558 65.1239 -28.585
      vertex 29.8577 66.2968 -27.75
      vertex 22.1342 64.8626 -30.55
    endloop
  endfacet
  facet normal -0.266252 0.928514 0.258789
    outer loop
      vertex 29.8577 66.2968 -27.75
      vertex 24.9558 65.1239 -28.585
      vertex 26.2125 65.3058 -27.9447
    endloop
  endfacet
  facet normal -0.266233 0.928507 0.258833
    outer loop
      vertex 49.8375 71.8672 -27.1807
      vertex 53.5736 73.9892 -30.95
      vertex 48.5633 71.5581 -27.3825
    endloop
  endfacet
  facet normal -0.266154 0.928567 0.2587
    outer loop
      vertex 24.9558 65.1239 -28.585
      vertex 22.1342 64.8626 -30.55
      vertex 23.639 64.8873 -29.0905
    endloop
  endfacet
  facet normal -0.266224 0.928526 0.258773
    outer loop
      vertex 23.639 64.8873 -29.0905
      vertex 22.1342 64.8626 -30.55
      vertex 22.2766 64.5984 -29.4555
    endloop
  endfacet
  facet normal -0.266206 0.928494 0.258909
    outer loop
      vertex 75.5737 78.2565 -23.6275
      vertex 93.6986 85.4949 -30.95
      vertex 74.4944 78.0277 -23.9167
    endloop
  endfacet
  facet normal -0.266254 0.928503 0.258828
    outer loop
      vertex 116.53 89.2625 -20.9795
      vertex 102.384 87.8739 -30.55
      vertex 115.545 89.0099 -21.0866
    endloop
  endfacet
  facet normal -0.266205 0.928519 0.258818
    outer loop
      vertex 136.568 94.715 -19.9277
      vertex 133.853 96.8975 -30.55
      vertex 135.59 94.4738 -20.0683
    endloop
  endfacet
  facet normal -0.266248 0.928505 0.258826
    outer loop
      vertex 133.853 96.8975 -30.55
      vertex 136.568 94.715 -19.9277
      vertex 142.509 99.3796 -30.55
    endloop
  endfacet
  facet normal -0.266289 0.9285 0.258801
    outer loop
      vertex 137.523 94.9189 -19.6766
      vertex 142.509 99.3796 -30.55
      vertex 136.568 94.715 -19.9277
    endloop
  endfacet
  facet normal -0.266304 0.928498 0.258793
    outer loop
      vertex 138.443 95.0829 -19.3183
      vertex 142.509 99.3796 -30.55
      vertex 137.523 94.9189 -19.6766
    endloop
  endfacet
  facet normal -0.266244 0.928505 0.258829
    outer loop
      vertex 157.1 103.675 -30.95
      vertex 142.509 99.3796 -30.55
      vertex 143.169 96.0983 -18.1
    endloop
  endfacet
  facet normal -0.266285 0.928607 0.258422
    outer loop
      vertex 142.509 99.3796 -30.55
      vertex 157.1 103.675 -30.95
      vertex 142.48 99.4826 -30.95
    endloop
  endfacet
  facet normal -0.266192 0.928522 0.258822
    outer loop
      vertex 129.968 92.4496 -18.5903
      vertex 126.531 91.3276 -18.1
      vertex 129.332 92.1306 -18.1
    endloop
  endfacet
  facet normal -0.266052 0.928379 0.259478
    outer loop
      vertex 130.813 92.8343 -19.1003
      vertex 126.531 91.3276 -18.1
      vertex 129.968 92.4496 -18.5903
    endloop
  endfacet
  facet normal -0.266282 0.928526 0.258714
    outer loop
      vertex 126.531 91.3276 -18.1
      vertex 130.813 92.8343 -19.1003
      vertex 123.606 90.7674 -19.1
    endloop
  endfacet
  facet normal -0.266303 0.9286 0.258427
    outer loop
      vertex 131.712 93.2063 -19.5106
      vertex 123.606 90.7674 -19.1
      vertex 130.813 92.8343 -19.1003
    endloop
  endfacet
  facet normal -0.266229 0.928454 0.259028
    outer loop
      vertex 132.651 93.5607 -19.8158
      vertex 123.606 90.7674 -19.1
      vertex 131.712 93.2063 -19.5106
    endloop
  endfacet
  facet normal -0.266231 0.928502 0.258852
    outer loop
      vertex 123.606 90.7674 -19.1
      vertex 120.185 89.9045 -19.5233
      vertex 120.742 89.9462 -19.1
    endloop
  endfacet
  facet normal -0.26625 0.928487 0.258888
    outer loop
      vertex 123.606 90.7674 -19.1
      vertex 132.651 93.5607 -19.8158
      vertex 118.437 89.6616 -20.4501
    endloop
  endfacet
  facet normal -0.26625 0.928539 0.258701
    outer loop
      vertex 117.498 89.4806 -20.7665
      vertex 132.651 93.5607 -19.8158
      vertex 133.619 93.8929 -20.0119
    endloop
  endfacet
  facet normal -0.266235 0.928482 0.25892
    outer loop
      vertex 123.606 90.7674 -19.1
      vertex 119.336 89.8035 -20.0341
      vertex 120.185 89.9045 -19.5233
    endloop
  endfacet
  facet normal -0.26621 0.928516 0.258825
    outer loop
      vertex 133.853 96.8975 -30.55
      vertex 133.619 93.8929 -20.0119
      vertex 134.603 94.1986 -20.0965
    endloop
  endfacet
  facet normal -0.266162 0.92864 0.258428
    outer loop
      vertex 123.606 90.7674 -19.1
      vertex 118.437 89.6616 -20.4501
      vertex 119.336 89.8035 -20.0341
    endloop
  endfacet
  facet normal -0.266234 0.928512 0.258813
    outer loop
      vertex 109.915 86.9597 -19.5233
      vertex 106.494 85.8608 -19.1
      vertex 109.358 86.682 -19.1
    endloop
  endfacet
  facet normal -0.266241 0.92852 0.25878
    outer loop
      vertex 110.764 87.3455 -20.0341
      vertex 106.494 85.8608 -19.1
      vertex 109.915 86.9597 -19.5233
    endloop
  endfacet
  facet normal -0.266294 0.928718 0.258013
    outer loop
      vertex 103.131 85.0777 -19.75
      vertex 99.9943 84.2312 -19.9404
      vertex 100.229 84.2456 -19.75
    endloop
  endfacet
  facet normal -0.266233 0.928515 0.258805
    outer loop
      vertex 106.494 85.8608 -19.1
      vertex 110.764 87.3455 -20.0341
      vertex 103.131 85.0777 -19.75
    endloop
  endfacet
  facet normal -0.266214 0.928471 0.258981
    outer loop
      vertex 111.663 87.7193 -20.4501
      vertex 103.131 85.0777 -19.75
      vertex 110.764 87.3455 -20.0341
    endloop
  endfacet
  facet normal -0.266263 0.928546 0.258664
    outer loop
      vertex 112.602 88.0767 -20.7665
      vertex 103.131 85.0777 -19.75
      vertex 111.663 87.7193 -20.4501
    endloop
  endfacet
  facet normal -0.266282 0.928462 0.258944
    outer loop
      vertex 103.131 85.0777 -19.75
      vertex 99.1625 84.1433 -20.4806
      vertex 99.9943 84.2312 -19.9404
    endloop
  endfacet
  facet normal -0.266249 0.928528 0.25874
    outer loop
      vertex 103.131 85.0777 -19.75
      vertex 112.602 88.0767 -20.7665
      vertex 98.2788 84.0154 -20.9308
    endloop
  endfacet
  facet normal -0.266277 0.928476 0.2589
    outer loop
      vertex 103.131 85.0777 -19.75
      vertex 98.2788 84.0154 -20.9308
      vertex 99.1625 84.1433 -20.4806
    endloop
  endfacet
  facet normal -0.26625 0.928547 0.258673
    outer loop
      vertex 97.3529 83.849 -21.2863
      vertex 112.602 88.0767 -20.7665
      vertex 113.57 88.4136 -20.9795
    endloop
  endfacet
  facet normal -0.266278 0.928679 0.258169
    outer loop
      vertex 97.3529 83.849 -21.2863
      vertex 113.57 88.4136 -20.9795
      vertex 114.555 88.7258 -21.0866
    endloop
  endfacet
  facet normal -0.266244 0.928506 0.258824
    outer loop
      vertex 112.602 88.0767 -20.7665
      vertex 97.3529 83.849 -21.2863
      vertex 98.2788 84.0154 -20.9308
    endloop
  endfacet
  facet normal -0.266239 0.928493 0.258879
    outer loop
      vertex 88.8557 81.0373 -19.9404
      vertex 85.7187 80.0847 -19.75
      vertex 88.6206 80.9168 -19.75
    endloop
  endfacet
  facet normal -0.266246 0.928505 0.258826
    outer loop
      vertex 89.6875 81.4264 -20.4806
      vertex 85.7187 80.0847 -19.75
      vertex 88.8557 81.0373 -19.9404
    endloop
  endfacet
  facet normal -0.266252 0.928504 0.258825
    outer loop
      vertex 81.5162 79.5486 -22.15
      vertex 89.6875 81.4264 -20.4806
      vertex 90.5712 81.8053 -20.9308
    endloop
  endfacet
  facet normal -0.266147 0.928526 0.258853
    outer loop
      vertex 93.7281 85.3918 -30.55
      vertex 90.5712 81.8053 -20.9308
      vertex 91.4971 82.1698 -21.2863
    endloop
  endfacet
  facet normal -0.266342 0.928487 0.258793
    outer loop
      vertex 93.7281 85.3918 -30.55
      vertex 91.4971 82.1698 -21.2863
      vertex 92.455 82.5161 -21.5429
    endloop
  endfacet
  facet normal -0.26625 0.928509 0.25881
    outer loop
      vertex 89.6875 81.4264 -20.4806
      vertex 81.5162 79.5486 -22.15
      vertex 85.7187 80.0847 -19.75
    endloop
  endfacet
  facet normal -0.266194 0.928521 0.258824
    outer loop
      vertex 93.7281 85.3918 -30.55
      vertex 92.455 82.5161 -21.5429
      vertex 93.4346 82.8402 -21.6981
    endloop
  endfacet
  facet normal -0.266281 0.928499 0.258815
    outer loop
      vertex 93.7281 85.3918 -30.55
      vertex 93.4346 82.8402 -21.6981
      vertex 94.425 83.1387 -21.75
    endloop
  endfacet
  facet normal -0.266267 0.928529 0.25872
    outer loop
      vertex 66.9375 75.5271 -22.7198
      vertex 63.0338 74.2489 -22.15
      vertex 66.06 75.1167 -22.15
    endloop
  endfacet
  facet normal -0.266242 0.928504 0.258837
    outer loop
      vertex 67.9331 75.954 -23.2271
      vertex 63.0338 74.2489 -22.15
      vertex 66.9375 75.5271 -22.7198
    endloop
  endfacet
  facet normal -0.266243 0.928514 0.258798
    outer loop
      vertex 57.2047 73.4973 -25.45
      vertex 67.9331 75.954 -23.2271
      vertex 68.9762 76.3647 -23.6275
    endloop
  endfacet
  facet normal -0.266245 0.928506 0.258824
    outer loop
      vertex 57.2047 73.4973 -25.45
      vertex 68.9762 76.3647 -23.6275
      vertex 70.0555 76.7548 -23.9167
    endloop
  endfacet
  facet normal -0.266246 0.928507 0.258821
    outer loop
      vertex 67.9331 75.954 -23.2271
      vertex 57.2047 73.4973 -25.45
      vertex 63.0338 74.2489 -22.15
    endloop
  endfacet
  facet normal -0.266248 0.928489 0.258884
    outer loop
      vertex 71.1591 77.12 -24.0915
      vertex 57.2047 73.4973 -25.45
      vertex 70.0555 76.7548 -23.9167
    endloop
  endfacet
  facet normal -0.266248 0.928489 0.258884
    outer loop
      vertex 57.2047 73.4973 -25.45
      vertex 71.1591 77.12 -24.0915
      vertex 72.275 77.4563 -24.15
    endloop
  endfacet
  facet normal -0.266234 0.928512 0.258813
    outer loop
      vertex 41.1125 68.9801 -25.7987
      vertex 37.3452 67.8027 -25.45
      vertex 40.5754 68.7289 -25.45
    endloop
  endfacet
  facet normal -0.26622 0.928494 0.258894
    outer loop
      vertex 42.262 69.473 -26.3844
      vertex 37.3452 67.8027 -25.45
      vertex 41.1125 68.9801 -25.7987
    endloop
  endfacet
  facet normal -0.266242 0.928528 0.258751
    outer loop
      vertex 29.8577 66.2968 -27.75
      vertex 42.262 69.473 -26.3844
      vertex 43.4664 69.9472 -26.8468
    endloop
  endfacet
  facet normal -0.266241 0.928498 0.258859
    outer loop
      vertex 29.8577 66.2968 -27.75
      vertex 43.4664 69.9472 -26.8468
      vertex 44.7125 70.3976 -27.1807
    endloop
  endfacet
  facet normal -0.266243 0.928512 0.258805
    outer loop
      vertex 42.262 69.473 -26.3844
      vertex 29.8577 66.2968 -27.75
      vertex 37.3452 67.8027 -25.45
    endloop
  endfacet
  facet normal -0.266221 0.928504 0.258857
    outer loop
      vertex 47.275 71.2075 -27.45
      vertex 53.5736 73.9892 -30.95
      vertex 45.9867 70.8193 -27.3825
    endloop
  endfacet
  facet normal -0.266246 0.928508 0.258815
    outer loop
      vertex 48.5633 71.5581 -27.3825
      vertex 53.5736 73.9892 -30.95
      vertex 47.275 71.2075 -27.45
    endloop
  endfacet
  facet normal -0.266102 0.928533 0.258875
    outer loop
      vertex 13.4781 62.3805 -30.55
      vertex 12.4377 61.3017 -27.75
      vertex 12.7375 61.4419 -27.9447
    endloop
  endfacet
  facet normal -0.266295 0.928497 0.258807
    outer loop
      vertex 13.4781 62.3805 -30.55
      vertex 12.7375 61.4419 -27.9447
      vertex 13.9942 61.9808 -28.585
    endloop
  endfacet
  facet normal -0.266258 0.928509 0.2588
    outer loop
      vertex 13.4781 62.3805 -30.55
      vertex 13.9942 61.9808 -28.585
      vertex 15.311 62.4993 -29.0905
    endloop
  endfacet
  facet normal -0.266252 0.928513 0.258791
    outer loop
      vertex 13.4781 62.3805 -30.55
      vertex 15.311 62.4993 -29.0905
      vertex 16.6734 62.9917 -29.4555
    endloop
  endfacet
  facet normal -0.266207 0.928512 0.258844
    outer loop
      vertex 52.288 72.3479 -26.3844
      vertex 53.6031 73.8862 -30.55
      vertex 51.0836 72.1315 -26.8468
    endloop
  endfacet
  facet normal -0.266282 0.928505 0.25879
    outer loop
      vertex 51.0836 72.1315 -26.8468
      vertex 53.6031 73.8862 -30.55
      vertex 49.8375 71.8672 -27.1807
    endloop
  endfacet
  facet normal -0.266334 0.928506 0.258732
    outer loop
      vertex 53.5736 73.9892 -30.95
      vertex 49.8375 71.8672 -27.1807
      vertex 53.6031 73.8862 -30.55
    endloop
  endfacet
  facet normal -0.266242 0.928504 0.258834
    outer loop
      vertex 44.7125 70.3976 -27.1807
      vertex 53.5736 73.9892 -30.95
      vertex 29.8577 66.2968 -27.75
    endloop
  endfacet
  facet normal -0.266276 0.928511 0.258776
    outer loop
      vertex 22.2766 64.5984 -29.4555
      vertex 22.1342 64.8626 -30.55
      vertex 20.8835 64.2604 -29.6762
    endloop
  endfacet
  facet normal -0.266239 0.928507 0.258825
    outer loop
      vertex 20.8835 64.2604 -29.6762
      vertex 22.1342 64.8626 -30.55
      vertex 19.475 63.8771 -29.75
    endloop
  endfacet
  facet normal -0.266291 0.928532 0.258684
    outer loop
      vertex 22.1342 64.8626 -30.55
      vertex 18.0665 63.4526 -29.6762
      vertex 19.475 63.8771 -29.75
    endloop
  endfacet
  facet normal -0.266243 0.928499 0.258854
    outer loop
      vertex 13.4781 62.3805 -30.55
      vertex 18.0665 63.4526 -29.6762
      vertex 22.1342 64.8626 -30.55
    endloop
  endfacet
  facet normal -0.266224 0.92855 0.258689
    outer loop
      vertex 18.0665 63.4526 -29.6762
      vertex 13.4781 62.3805 -30.55
      vertex 16.6734 62.9917 -29.4555
    endloop
  endfacet
  facet normal -0.266253 0.928508 0.258809
    outer loop
      vertex 12.4377 61.3017 -27.75
      vertex 13.4781 62.3805 -30.55
      vertex 9.09232 60.3424 -27.75
    endloop
  endfacet
  facet normal -0.266305 0.928515 0.258732
    outer loop
      vertex 13.4486 62.4835 -30.95
      vertex 9.09232 60.3424 -27.75
      vertex 13.4781 62.3805 -30.55
    endloop
  endfacet
  facet normal -0.266237 0.928509 0.258821
    outer loop
      vertex 9.09232 60.3424 -27.75
      vertex 13.4486 62.4835 -30.95
      vertex 3.39999 59.6022 -30.95
    endloop
  endfacet
  facet normal 1 0 0
    outer loop
      vertex 160.5 103.761 -20.0324
      vertex 160.5 101.068 -10.3732
      vertex 160.5 101.617 -20.0695
    endloop
  endfacet
  facet normal 1 -0 0
    outer loop
      vertex 160.5 99.1924 -11.3714
      vertex 160.5 101.617 -20.0695
      vertex 160.5 101.068 -10.3732
    endloop
  endfacet
  facet normal 1 0 0
    outer loop
      vertex 160.5 0 -32.55
      vertex 160.5 96.0226 0
      vertex 160.5 0 0
    endloop
  endfacet
  facet normal 1 0 0
    outer loop
      vertex 160.5 96.0226 0
      vertex 160.5 0 -32.55
      vertex 160.5 99.1924 -11.3714
    endloop
  endfacet
  facet normal 1 0 0
    outer loop
      vertex 160.5 99.1924 -11.3714
      vertex 160.5 0 -32.55
      vertex 160.5 101.617 -20.0695
    endloop
  endfacet
  facet normal 1 0 0
    outer loop
      vertex 160.5 101.617 -20.0695
      vertex 160.5 0 -32.55
      vertex 160.5 105.096 -32.55
    endloop
  endfacet
  facet normal -1 0 0
    outer loop
      vertex 0 55.5943 -20.0695
      vertex 0 53.1697 -11.3714
      vertex 0 55.0455 -10.3732
    endloop
  endfacet
  facet normal -1 0 0
    outer loop
      vertex 0 0 -32.55
      vertex 0 55.5943 -20.0695
      vertex 0 59.0732 -32.55
    endloop
  endfacet
  facet normal -1 0 0
    outer loop
      vertex 0 0 -32.55
      vertex 0 53.1697 -11.3714
      vertex 0 55.5943 -20.0695
    endloop
  endfacet
  facet normal -1 0 0
    outer loop
      vertex 0 0 0
      vertex 0 53.1697 -11.3714
      vertex 0 0 -32.55
    endloop
  endfacet
  facet normal -1 0 0
    outer loop
      vertex 0 53.1697 -11.3714
      vertex 0 0 0
      vertex 0 50 0
    endloop
  endfacet
  facet normal -1 -0 0
    outer loop
      vertex 0 57.738 -20.0324
      vertex 0 55.5943 -20.0695
      vertex 0 55.0455 -10.3732
    endloop
  endfacet
  facet normal 0 0 -1
    outer loop
      vertex 160.5 0 -32.55
      vertex 142.362 99.8947 -32.55
      vertex 160.5 105.096 -32.55
    endloop
  endfacet
  facet normal -0 0 -1
    outer loop
      vertex 142.362 99.8947 -32.55
      vertex 133.705 97.4126 -32.55
      vertex 142.269 102.022 -32.55
    endloop
  endfacet
  facet normal 0 0 -1
    outer loop
      vertex 160.5 0 -32.55
      vertex 133.705 97.4126 -32.55
      vertex 142.362 99.8947 -32.55
    endloop
  endfacet
  facet normal 0 0 -1
    outer loop
      vertex 160.5 0 -32.55
      vertex 102.237 88.3891 -32.55
      vertex 133.705 97.4126 -32.55
    endloop
  endfacet
  facet normal -0 0 -1
    outer loop
      vertex 102.237 88.3891 -32.55
      vertex 93.5804 85.907 -32.55
      vertex 102.144 90.5165 -32.55
    endloop
  endfacet
  facet normal 0 0 -1
    outer loop
      vertex 160.5 0 -32.55
      vertex 93.5804 85.907 -32.55
      vertex 102.237 88.3891 -32.55
    endloop
  endfacet
  facet normal 0 0 -1
    outer loop
      vertex 160.5 0 -32.55
      vertex 62.1115 76.8834 -32.55
      vertex 93.5804 85.907 -32.55
    endloop
  endfacet
  facet normal -0 0 -1
    outer loop
      vertex 62.1115 76.8834 -32.55
      vertex 53.4554 74.4013 -32.55
      vertex 62.0191 79.0109 -32.55
    endloop
  endfacet
  facet normal 0 0 -1
    outer loop
      vertex 160.5 0 -32.55
      vertex 53.4554 74.4013 -32.55
      vertex 62.1115 76.8834 -32.55
    endloop
  endfacet
  facet normal 0 0 -1
    outer loop
      vertex 0 0 -32.55
      vertex 53.4554 74.4013 -32.55
      vertex 160.5 0 -32.55
    endloop
  endfacet
  facet normal -0 0 -1
    outer loop
      vertex 21.9865 65.3778 -32.55
      vertex 13.3304 62.8957 -32.55
      vertex 21.894 67.5052 -32.55
    endloop
  endfacet
  facet normal 0 0 -1
    outer loop
      vertex 53.4554 74.4013 -32.55
      vertex 0 0 -32.55
      vertex 21.9865 65.3778 -32.55
    endloop
  endfacet
  facet normal 0 0 -1
    outer loop
      vertex 21.9865 65.3778 -32.55
      vertex 0 0 -32.55
      vertex 13.3304 62.8957 -32.55
    endloop
  endfacet
  facet normal 0 0 -1
    outer loop
      vertex 13.3304 62.8957 -32.55
      vertex 0 0 -32.55
      vertex 0 59.0732 -32.55
    endloop
  endfacet
  facet normal 0 0 -1
    outer loop
      vertex 142.269 102.022 -32.55
      vertex 133.705 97.4126 -32.55
      vertex 132.656 99.2658 -32.55
    endloop
  endfacet
  facet normal 0 0 -1
    outer loop
      vertex 102.144 90.5165 -32.55
      vertex 93.5804 85.907 -32.55
      vertex 92.5314 87.7602 -32.55
    endloop
  endfacet
  facet normal 0 0 -1
    outer loop
      vertex 62.0191 79.0109 -32.55
      vertex 53.4554 74.4013 -32.55
      vertex 52.4064 76.2545 -32.55
    endloop
  endfacet
  facet normal 0 0 -1
    outer loop
      vertex 21.894 67.5052 -32.55
      vertex 13.3304 62.8957 -32.55
      vertex 12.2814 64.7489 -32.55
    endloop
  endfacet
  facet normal 0 0 1
    outer loop
      vertex 2 50.5735 0
      vertex 0 50 0
      vertex 2 2 0
    endloop
  endfacet
  facet normal 0 0 1
    outer loop
      vertex 158.5 2 0
      vertex 160.5 96.0226 0
      vertex 158.5 95.4491 0
    endloop
  endfacet
  facet normal 0 0 1
    outer loop
      vertex 160.5 96.0226 0
      vertex 158.5 2 0
      vertex 160.5 0 0
    endloop
  endfacet
  facet normal -0 0 1
    outer loop
      vertex 2 2 0
      vertex 160.5 0 0
      vertex 158.5 2 0
    endloop
  endfacet
  facet normal 0 0 1
    outer loop
      vertex 2 2 0
      vertex 0 0 0
      vertex 160.5 0 0
    endloop
  endfacet
  facet normal 0 0 1
    outer loop
      vertex 0 0 0
      vertex 2 2 0
      vertex 0 50 0
    endloop
  endfacet
  facet normal -1 0 0
    outer loop
      vertex 158.5 101.043 -20.0695
      vertex 158.5 98.6189 -11.3714
      vertex 158.5 100.495 -10.3732
    endloop
  endfacet
  facet normal -1 0 0
    outer loop
      vertex 158.5 2 -30.55
      vertex 158.5 101.043 -20.0695
      vertex 158.5 103.965 -30.55
    endloop
  endfacet
  facet normal -1 0 0
    outer loop
      vertex 158.5 2 -30.55
      vertex 158.5 98.6189 -11.3714
      vertex 158.5 101.043 -20.0695
    endloop
  endfacet
  facet normal -1 0 0
    outer loop
      vertex 158.5 2 -30.55
      vertex 158.5 95.4491 0
      vertex 158.5 98.6189 -11.3714
    endloop
  endfacet
  facet normal -1 -0 0
    outer loop
      vertex 158.5 95.4491 0
      vertex 158.5 2 -30.55
      vertex 158.5 2 0
    endloop
  endfacet
  facet normal -1 -0 0
    outer loop
      vertex 158.5 103.187 -20.0324
      vertex 158.5 101.043 -20.0695
      vertex 158.5 100.495 -10.3732
    endloop
  endfacet
  facet normal 0 1 0
    outer loop
      vertex 24.9558 2 -28.585
      vertex 26.5123 2 -27.75
      vertex 26.2125 2 -27.9447
    endloop
  endfacet
  facet normal 0 1 0
    outer loop
      vertex 26.5123 2 -27.75
      vertex 24.9558 2 -28.585
      vertex 12.4377 2 -27.75
    endloop
  endfacet
  facet normal 0 1 -0
    outer loop
      vertex 13.9942 2 -28.585
      vertex 12.4377 2 -27.75
      vertex 24.9558 2 -28.585
    endloop
  endfacet
  facet normal 0 1 0
    outer loop
      vertex 12.4377 2 -27.75
      vertex 13.9942 2 -28.585
      vertex 12.7375 2 -27.9447
    endloop
  endfacet
  facet normal 0 1 -0
    outer loop
      vertex 23.639 2 -29.0905
      vertex 13.9942 2 -28.585
      vertex 24.9558 2 -28.585
    endloop
  endfacet
  facet normal 0 1 0
    outer loop
      vertex 23.639 2 -29.0905
      vertex 15.311 2 -29.0905
      vertex 13.9942 2 -28.585
    endloop
  endfacet
  facet normal 0 1 -0
    outer loop
      vertex 22.2766 2 -29.4555
      vertex 15.311 2 -29.0905
      vertex 23.639 2 -29.0905
    endloop
  endfacet
  facet normal 0 1 0
    outer loop
      vertex 22.2766 2 -29.4555
      vertex 16.6734 2 -29.4555
      vertex 15.311 2 -29.0905
    endloop
  endfacet
  facet normal 0 1 -0
    outer loop
      vertex 20.8835 2 -29.6762
      vertex 16.6734 2 -29.4555
      vertex 22.2766 2 -29.4555
    endloop
  endfacet
  facet normal 0 1 0
    outer loop
      vertex 20.8835 2 -29.6762
      vertex 18.0665 2 -29.6762
      vertex 16.6734 2 -29.4555
    endloop
  endfacet
  facet normal -0 1 0
    outer loop
      vertex 18.0665 2 -29.6762
      vertex 20.8835 2 -29.6762
      vertex 19.475 2 -29.75
    endloop
  endfacet
  facet normal 0 1 0
    outer loop
      vertex 52.288 2 -26.3844
      vertex 53.9745 2 -25.45
      vertex 53.4375 2 -25.7987
    endloop
  endfacet
  facet normal 0 1 0
    outer loop
      vertex 53.9745 2 -25.45
      vertex 52.288 2 -26.3844
      vertex 40.5754 2 -25.45
    endloop
  endfacet
  facet normal 0 1 -0
    outer loop
      vertex 42.262 2 -26.3844
      vertex 40.5754 2 -25.45
      vertex 52.288 2 -26.3844
    endloop
  endfacet
  facet normal 0 1 0
    outer loop
      vertex 40.5754 2 -25.45
      vertex 42.262 2 -26.3844
      vertex 41.1125 2 -25.7987
    endloop
  endfacet
  facet normal 0 1 -0
    outer loop
      vertex 51.0836 2 -26.8468
      vertex 42.262 2 -26.3844
      vertex 52.288 2 -26.3844
    endloop
  endfacet
  facet normal 0 1 0
    outer loop
      vertex 51.0836 2 -26.8468
      vertex 43.4664 2 -26.8468
      vertex 42.262 2 -26.3844
    endloop
  endfacet
  facet normal 0 1 -0
    outer loop
      vertex 49.8375 2 -27.1807
      vertex 43.4664 2 -26.8468
      vertex 51.0836 2 -26.8468
    endloop
  endfacet
  facet normal 0 1 0
    outer loop
      vertex 49.8375 2 -27.1807
      vertex 44.7125 2 -27.1807
      vertex 43.4664 2 -26.8468
    endloop
  endfacet
  facet normal 0 1 -0
    outer loop
      vertex 48.5633 2 -27.3825
      vertex 44.7125 2 -27.1807
      vertex 49.8375 2 -27.1807
    endloop
  endfacet
  facet normal 0 1 0
    outer loop
      vertex 48.5633 2 -27.3825
      vertex 45.9867 2 -27.3825
      vertex 44.7125 2 -27.1807
    endloop
  endfacet
  facet normal -0 1 0
    outer loop
      vertex 45.9867 2 -27.3825
      vertex 48.5633 2 -27.3825
      vertex 47.275 2 -27.45
    endloop
  endfacet
  facet normal 0 1 -0
    outer loop
      vertex 77.6125 2 -22.7198
      vertex 66.06 2 -22.15
      vertex 78.4899 2 -22.15
    endloop
  endfacet
  facet normal 0 1 0
    outer loop
      vertex 77.6125 2 -22.7198
      vertex 66.9375 2 -22.7198
      vertex 66.06 2 -22.15
    endloop
  endfacet
  facet normal 0 1 -0
    outer loop
      vertex 76.6169 2 -23.2271
      vertex 66.9375 2 -22.7198
      vertex 77.6125 2 -22.7198
    endloop
  endfacet
  facet normal 0 1 0
    outer loop
      vertex 76.6169 2 -23.2271
      vertex 67.9331 2 -23.2271
      vertex 66.9375 2 -22.7198
    endloop
  endfacet
  facet normal 0 1 -0
    outer loop
      vertex 75.5737 2 -23.6275
      vertex 67.9331 2 -23.2271
      vertex 76.6169 2 -23.2271
    endloop
  endfacet
  facet normal 0 1 0
    outer loop
      vertex 75.5737 2 -23.6275
      vertex 68.9762 2 -23.6275
      vertex 67.9331 2 -23.2271
    endloop
  endfacet
  facet normal 0 1 -0
    outer loop
      vertex 74.4944 2 -23.9167
      vertex 68.9762 2 -23.6275
      vertex 75.5737 2 -23.6275
    endloop
  endfacet
  facet normal 0 1 0
    outer loop
      vertex 74.4944 2 -23.9167
      vertex 70.0555 2 -23.9167
      vertex 68.9762 2 -23.6275
    endloop
  endfacet
  facet normal 0 1 -0
    outer loop
      vertex 73.3908 2 -24.0915
      vertex 70.0555 2 -23.9167
      vertex 74.4944 2 -23.9167
    endloop
  endfacet
  facet normal 0 1 0
    outer loop
      vertex 73.3908 2 -24.0915
      vertex 71.1591 2 -24.0915
      vertex 70.0555 2 -23.9167
    endloop
  endfacet
  facet normal -0 1 0
    outer loop
      vertex 71.1591 2 -24.0915
      vertex 73.3908 2 -24.0915
      vertex 72.275 2 -24.15
    endloop
  endfacet
  facet normal 0 1 0
    outer loop
      vertex 99.1625 2 -20.4806
      vertex 100.229 2 -19.75
      vertex 99.9943 2 -19.9404
    endloop
  endfacet
  facet normal 0 1 0
    outer loop
      vertex 100.229 2 -19.75
      vertex 99.1625 2 -20.4806
      vertex 88.6206 2 -19.75
    endloop
  endfacet
  facet normal 0 1 -0
    outer loop
      vertex 89.6875 2 -20.4806
      vertex 88.6206 2 -19.75
      vertex 99.1625 2 -20.4806
    endloop
  endfacet
  facet normal 0 1 0
    outer loop
      vertex 88.6206 2 -19.75
      vertex 89.6875 2 -20.4806
      vertex 88.8557 2 -19.9404
    endloop
  endfacet
  facet normal 0 1 -0
    outer loop
      vertex 98.2788 2 -20.9308
      vertex 89.6875 2 -20.4806
      vertex 99.1625 2 -20.4806
    endloop
  endfacet
  facet normal 0 1 0
    outer loop
      vertex 98.2788 2 -20.9308
      vertex 90.5712 2 -20.9308
      vertex 89.6875 2 -20.4806
    endloop
  endfacet
  facet normal 0 1 -0
    outer loop
      vertex 97.3529 2 -21.2863
      vertex 90.5712 2 -20.9308
      vertex 98.2788 2 -20.9308
    endloop
  endfacet
  facet normal 0 1 0
    outer loop
      vertex 97.3529 2 -21.2863
      vertex 91.4971 2 -21.2863
      vertex 90.5712 2 -20.9308
    endloop
  endfacet
  facet normal 0 1 -0
    outer loop
      vertex 96.395 2 -21.5429
      vertex 91.4971 2 -21.2863
      vertex 97.3529 2 -21.2863
    endloop
  endfacet
  facet normal 0 1 0
    outer loop
      vertex 96.395 2 -21.5429
      vertex 92.455 2 -21.5429
      vertex 91.4971 2 -21.2863
    endloop
  endfacet
  facet normal 0 1 -0
    outer loop
      vertex 95.4154 2 -21.6981
      vertex 92.455 2 -21.5429
      vertex 96.395 2 -21.5429
    endloop
  endfacet
  facet normal 0 1 0
    outer loop
      vertex 95.4154 2 -21.6981
      vertex 93.4346 2 -21.6981
      vertex 92.455 2 -21.5429
    endloop
  endfacet
  facet normal -0 1 0
    outer loop
      vertex 93.4346 2 -21.6981
      vertex 95.4154 2 -21.6981
      vertex 94.425 2 -21.75
    endloop
  endfacet
  facet normal 0 1 0
    outer loop
      vertex 119.336 2 -20.0341
      vertex 120.742 2 -19.1
      vertex 120.185 2 -19.5233
    endloop
  endfacet
  facet normal 0 1 0
    outer loop
      vertex 120.742 2 -19.1
      vertex 119.336 2 -20.0341
      vertex 109.358 2 -19.1
    endloop
  endfacet
  facet normal 0 1 -0
    outer loop
      vertex 110.764 2 -20.0341
      vertex 109.358 2 -19.1
      vertex 119.336 2 -20.0341
    endloop
  endfacet
  facet normal 0 1 0
    outer loop
      vertex 109.358 2 -19.1
      vertex 110.764 2 -20.0341
      vertex 109.915 2 -19.5233
    endloop
  endfacet
  facet normal 0 1 -0
    outer loop
      vertex 118.437 2 -20.4501
      vertex 110.764 2 -20.0341
      vertex 119.336 2 -20.0341
    endloop
  endfacet
  facet normal 0 1 0
    outer loop
      vertex 118.437 2 -20.4501
      vertex 111.663 2 -20.4501
      vertex 110.764 2 -20.0341
    endloop
  endfacet
  facet normal 0 1 -0
    outer loop
      vertex 117.498 2 -20.7665
      vertex 111.663 2 -20.4501
      vertex 118.437 2 -20.4501
    endloop
  endfacet
  facet normal 0 1 0
    outer loop
      vertex 117.498 2 -20.7665
      vertex 112.602 2 -20.7665
      vertex 111.663 2 -20.4501
    endloop
  endfacet
  facet normal 0 1 -0
    outer loop
      vertex 116.53 2 -20.9795
      vertex 112.602 2 -20.7665
      vertex 117.498 2 -20.7665
    endloop
  endfacet
  facet normal 0 1 0
    outer loop
      vertex 116.53 2 -20.9795
      vertex 113.57 2 -20.9795
      vertex 112.602 2 -20.7665
    endloop
  endfacet
  facet normal 0 1 -0
    outer loop
      vertex 115.545 2 -21.0866
      vertex 113.57 2 -20.9795
      vertex 116.53 2 -20.9795
    endloop
  endfacet
  facet normal 0 1 0
    outer loop
      vertex 113.57 2 -20.9795
      vertex 115.545 2 -21.0866
      vertex 114.555 2 -21.0866
    endloop
  endfacet
  facet normal 0 1 0
    outer loop
      vertex 139.317 2 -18.8574
      vertex 140.363 2 -18.1
      vertex 140.132 2 -18.3
    endloop
  endfacet
  facet normal 0 1 0
    outer loop
      vertex 140.363 2 -18.1
      vertex 139.317 2 -18.8574
      vertex 129.332 2 -18.1
    endloop
  endfacet
  facet normal 0 1 0
    outer loop
      vertex 129.332 2 -18.1
      vertex 139.317 2 -18.8574
      vertex 129.968 2 -18.5903
    endloop
  endfacet
  facet normal 0 1 0
    outer loop
      vertex 139.317 2 -18.8574
      vertex 130.813 2 -19.1003
      vertex 129.968 2 -18.5903
    endloop
  endfacet
  facet normal 0 1 -0
    outer loop
      vertex 138.443 2 -19.3183
      vertex 130.813 2 -19.1003
      vertex 139.317 2 -18.8574
    endloop
  endfacet
  facet normal 0 1 0
    outer loop
      vertex 138.443 2 -19.3183
      vertex 131.712 2 -19.5106
      vertex 130.813 2 -19.1003
    endloop
  endfacet
  facet normal 0 1 -0
    outer loop
      vertex 137.523 2 -19.6766
      vertex 131.712 2 -19.5106
      vertex 138.443 2 -19.3183
    endloop
  endfacet
  facet normal 0 1 0
    outer loop
      vertex 137.523 2 -19.6766
      vertex 132.651 2 -19.8158
      vertex 131.712 2 -19.5106
    endloop
  endfacet
  facet normal 0 1 -0
    outer loop
      vertex 136.568 2 -19.9277
      vertex 132.651 2 -19.8158
      vertex 137.523 2 -19.6766
    endloop
  endfacet
  facet normal 0 1 0
    outer loop
      vertex 136.568 2 -19.9277
      vertex 133.619 2 -20.0119
      vertex 132.651 2 -19.8158
    endloop
  endfacet
  facet normal 0 1 -0
    outer loop
      vertex 135.59 2 -20.0683
      vertex 133.619 2 -20.0119
      vertex 136.568 2 -19.9277
    endloop
  endfacet
  facet normal 0 1 0
    outer loop
      vertex 133.619 2 -20.0119
      vertex 135.59 2 -20.0683
      vertex 134.603 2 -20.0965
    endloop
  endfacet
  facet normal 0 1 0
    outer loop
      vertex 140.363 2 -18.1
      vertex 158.5 2 0
      vertex 143.169 2 -18.1
    endloop
  endfacet
  facet normal 0 1 -0
    outer loop
      vertex 158.5 2 -30.55
      vertex 143.169 2 -18.1
      vertex 158.5 2 0
    endloop
  endfacet
  facet normal 0 1 0
    outer loop
      vertex 143.169 2 -18.1
      vertex 158.5 2 -30.55
      vertex 156.666 2 -30.55
    endloop
  endfacet
  facet normal 0 1 0
    outer loop
      vertex 129.332 2 -18.1
      vertex 158.5 2 0
      vertex 140.363 2 -18.1
    endloop
  endfacet
  facet normal 0 1 0
    outer loop
      vertex 126.531 2 -18.1
      vertex 158.5 2 0
      vertex 129.332 2 -18.1
    endloop
  endfacet
  facet normal 0 1 0
    outer loop
      vertex 109.358 2 -19.1
      vertex 158.5 2 0
      vertex 126.531 2 -18.1
    endloop
  endfacet
  facet normal 0 1 0
    outer loop
      vertex 120.742 2 -19.1
      vertex 126.531 2 -18.1
      vertex 123.606 2 -19.1
    endloop
  endfacet
  facet normal 0 1 0
    outer loop
      vertex 109.358 2 -19.1
      vertex 126.531 2 -18.1
      vertex 120.742 2 -19.1
    endloop
  endfacet
  facet normal 0 1 0
    outer loop
      vertex 158.5 2 0
      vertex 109.358 2 -19.1
      vertex 106.494 2 -19.1
    endloop
  endfacet
  facet normal 0 1 0
    outer loop
      vertex 88.6206 2 -19.75
      vertex 158.5 2 0
      vertex 106.494 2 -19.1
    endloop
  endfacet
  facet normal 0 1 0
    outer loop
      vertex 100.229 2 -19.75
      vertex 106.494 2 -19.1
      vertex 103.131 2 -19.75
    endloop
  endfacet
  facet normal 0 1 0
    outer loop
      vertex 88.6206 2 -19.75
      vertex 106.494 2 -19.1
      vertex 100.229 2 -19.75
    endloop
  endfacet
  facet normal 0 1 0
    outer loop
      vertex 85.7187 2 -19.75
      vertex 158.5 2 0
      vertex 88.6206 2 -19.75
    endloop
  endfacet
  facet normal 0 1 0
    outer loop
      vertex 158.5 2 0
      vertex 85.7187 2 -19.75
      vertex 2 2 0
    endloop
  endfacet
  facet normal 0 1 0
    outer loop
      vertex 78.4899 2 -22.15
      vertex 85.7187 2 -19.75
      vertex 81.5162 2 -22.15
    endloop
  endfacet
  facet normal 0 1 0
    outer loop
      vertex 66.06 2 -22.15
      vertex 85.7187 2 -19.75
      vertex 78.4899 2 -22.15
    endloop
  endfacet
  facet normal 0 1 0
    outer loop
      vertex 85.7187 2 -19.75
      vertex 66.06 2 -22.15
      vertex 2 2 0
    endloop
  endfacet
  facet normal 0 1 -0
    outer loop
      vertex 63.0338 2 -22.15
      vertex 2 2 0
      vertex 66.06 2 -22.15
    endloop
  endfacet
  facet normal 0 1 0
    outer loop
      vertex 53.9745 2 -25.45
      vertex 63.0338 2 -22.15
      vertex 57.2047 2 -25.45
    endloop
  endfacet
  facet normal 0 1 0
    outer loop
      vertex 40.5754 2 -25.45
      vertex 63.0338 2 -22.15
      vertex 53.9745 2 -25.45
    endloop
  endfacet
  facet normal 0 1 0
    outer loop
      vertex 63.0338 2 -22.15
      vertex 40.5754 2 -25.45
      vertex 2 2 0
    endloop
  endfacet
  facet normal 0 1 -0
    outer loop
      vertex 37.3452 2 -25.45
      vertex 2 2 0
      vertex 40.5754 2 -25.45
    endloop
  endfacet
  facet normal 0 1 0
    outer loop
      vertex 26.5123 2 -27.75
      vertex 37.3452 2 -25.45
      vertex 29.8577 2 -27.75
    endloop
  endfacet
  facet normal 0 1 0
    outer loop
      vertex 37.3452 2 -25.45
      vertex 26.5123 2 -27.75
      vertex 2 2 0
    endloop
  endfacet
  facet normal 0 1 -0
    outer loop
      vertex 12.4377 2 -27.75
      vertex 2 2 0
      vertex 26.5123 2 -27.75
    endloop
  endfacet
  facet normal 0 1 -0
    outer loop
      vertex 9.09232 2 -27.75
      vertex 2 2 0
      vertex 12.4377 2 -27.75
    endloop
  endfacet
  facet normal 0 1 0
    outer loop
      vertex 2 2 -30.55
      vertex 9.09232 2 -27.75
      vertex 4.11152 2 -30.55
    endloop
  endfacet
  facet normal 0 1 0
    outer loop
      vertex 9.09232 2 -27.75
      vertex 2 2 -30.55
      vertex 2 2 0
    endloop
  endfacet
  facet normal 1 0 0
    outer loop
      vertex 2 58.3115 -20.0324
      vertex 2 55.619 -10.3732
      vertex 2 56.1678 -20.0695
    endloop
  endfacet
  facet normal 1 -0 0
    outer loop
      vertex 2 53.7432 -11.3714
      vertex 2 56.1678 -20.0695
      vertex 2 55.619 -10.3732
    endloop
  endfacet
  facet normal 1 -0 0
    outer loop
      vertex 2 2 0
      vertex 2 53.7432 -11.3714
      vertex 2 50.5735 0
    endloop
  endfacet
  facet normal 1 0 0
    outer loop
      vertex 2 2 -30.55
      vertex 2 53.7432 -11.3714
      vertex 2 2 0
    endloop
  endfacet
  facet normal 1 0 0
    outer loop
      vertex 2 53.7432 -11.3714
      vertex 2 2 -30.55
      vertex 2 56.1678 -20.0695
    endloop
  endfacet
  facet normal 1 0 0
    outer loop
      vertex 2 56.1678 -20.0695
      vertex 2 2 -30.55
      vertex 2 59.0892 -30.55
    endloop
  endfacet
  facet normal 0 0 1
    outer loop
      vertex 22.0418 66.9901 -30.55
      vertex 13.4781 62.3805 -30.55
      vertex 22.1342 64.8626 -30.55
    endloop
  endfacet
  facet normal 0 -0 1
    outer loop
      vertex 13.4781 62.3805 -30.55
      vertex 22.0418 66.9901 -30.55
      vertex 12.4291 64.2337 -30.55
    endloop
  endfacet
  facet normal 0 0 1
    outer loop
      vertex 62.1668 78.4958 -30.55
      vertex 53.6031 73.8862 -30.55
      vertex 62.2592 76.3683 -30.55
    endloop
  endfacet
  facet normal 0 -0 1
    outer loop
      vertex 53.6031 73.8862 -30.55
      vertex 62.1668 78.4958 -30.55
      vertex 52.5541 75.7394 -30.55
    endloop
  endfacet
  facet normal 0 0 1
    outer loop
      vertex 102.292 90.0014 -30.55
      vertex 93.7281 85.3918 -30.55
      vertex 102.384 87.8739 -30.55
    endloop
  endfacet
  facet normal 0 -0 1
    outer loop
      vertex 93.7281 85.3918 -30.55
      vertex 102.292 90.0014 -30.55
      vertex 92.6791 87.245 -30.55
    endloop
  endfacet
  facet normal 0 0 1
    outer loop
      vertex 142.417 101.507 -30.55
      vertex 133.853 96.8975 -30.55
      vertex 142.509 99.3796 -30.55
    endloop
  endfacet
  facet normal 0 -0 1
    outer loop
      vertex 133.853 96.8975 -30.55
      vertex 142.417 101.507 -30.55
      vertex 132.804 98.7507 -30.55
    endloop
  endfacet
  facet normal -0 0 1
    outer loop
      vertex 156.666 103.439 -30.55
      vertex 158.5 2 -30.55
      vertex 158.5 103.965 -30.55
    endloop
  endfacet
  facet normal 0 0 1
    outer loop
      vertex 158.5 2 -30.55
      vertex 156.666 103.439 -30.55
      vertex 156.666 2 -30.55
    endloop
  endfacet
  facet normal -0 0 1
    outer loop
      vertex 2 59.0892 -30.55
      vertex 4.11152 2 -30.55
      vertex 4.11152 59.6947 -30.55
    endloop
  endfacet
  facet normal 0 0 1
    outer loop
      vertex 4.11152 2 -30.55
      vertex 2 59.0892 -30.55
      vertex 2 2 -30.55
    endloop
  endfacet
  facet normal -0.277454 0.924848 0.260145
    outer loop
      vertex 158.5 103.965 -30.55
      vertex 160.49 101.614 -20.0695
      vertex 160.5 101.617 -20.0695
    endloop
  endfacet
  facet normal -0.266299 0.928485 0.258843
    outer loop
      vertex 160.49 101.614 -20.0695
      vertex 158.5 103.965 -30.55
      vertex 159.186 101.24 -20.0695
    endloop
  endfacet
  facet normal -0.266245 0.928506 0.258826
    outer loop
      vertex 158.5 103.965 -30.55
      vertex 160.5 101.617 -20.0695
      vertex 160.5 105.096 -32.55
    endloop
  endfacet
  facet normal -0.269049 0.927756 0.258614
    outer loop
      vertex 160.49 99.1895 -11.3714
      vertex 160.5 96.0226 0
      vertex 160.5 99.1924 -11.3714
    endloop
  endfacet
  facet normal -0.266397 0.928467 0.258809
    outer loop
      vertex 160.5 96.0226 0
      vertex 160.49 99.1895 -11.3714
      vertex 159.756 98.9789 -11.3714
    endloop
  endfacet
  facet normal -0.266292 0.928478 0.258875
    outer loop
      vertex 158.5 103.965 -30.55
      vertex 157.1 103.675 -30.95
      vertex 156.666 103.439 -30.55
    endloop
  endfacet
  facet normal -0.266247 0.928472 0.258946
    outer loop
      vertex 157.1 103.675 -30.95
      vertex 142.378 99.8358 -32.3213
      vertex 142.48 99.4826 -30.95
    endloop
  endfacet
  facet normal -0.266245 0.928498 0.258852
    outer loop
      vertex 157.1 103.675 -30.95
      vertex 160.5 105.096 -32.55
      vertex 142.378 99.8358 -32.3213
    endloop
  endfacet
  facet normal -0.266275 0.928506 0.258795
    outer loop
      vertex 160.5 105.096 -32.55
      vertex 157.1 103.675 -30.95
      vertex 158.5 103.965 -30.55
    endloop
  endfacet
  facet normal -0.266219 0.928367 0.25935
    outer loop
      vertex 4.11152 59.6947 -30.55
      vertex 4.06517 59.6887 -30.5761
      vertex 2 59.0892 -30.55
    endloop
  endfacet
  facet normal -0.26625 0.928527 0.258745
    outer loop
      vertex 53.5736 73.9892 -30.95
      vertex 53.5551 74.0537 -31.2005
      vertex 33.6995 68.2904 -30.95
    endloop
  endfacet
  facet normal -0.266248 0.928512 0.258801
    outer loop
      vertex 93.6427 85.6897 -31.7064
      vertex 62.2297 76.4713 -30.95
      vertex 93.6986 85.4949 -30.95
    endloop
  endfacet
  facet normal -0.266255 0.92853 0.258727
    outer loop
      vertex 62.2297 76.4713 -30.95
      vertex 93.6427 85.6897 -31.7064
      vertex 62.2031 76.5639 -31.3097
    endloop
  endfacet
  facet normal -0.266232 0.928469 0.258969
    outer loop
      vertex 133.73 97.3256 -32.2122
      vertex 102.355 87.977 -30.95
      vertex 133.824 97.0005 -30.95
    endloop
  endfacet
  facet normal -0.266249 0.928508 0.258815
    outer loop
      vertex 102.355 87.977 -30.95
      vertex 133.73 97.3256 -32.2122
      vertex 102.291 88.1999 -31.8155
    endloop
  endfacet
  facet normal -0.266239 0.928481 0.258922
    outer loop
      vertex 160.5 105.096 -32.55
      vertex 142.362 99.8922 -32.54
      vertex 142.378 99.8358 -32.3213
    endloop
  endfacet
  facet normal -0.268022 0.934648 0.233662
    outer loop
      vertex 142.362 99.8922 -32.54
      vertex 160.5 105.096 -32.55
      vertex 142.362 99.8947 -32.55
    endloop
  endfacet
  facet normal -0.266235 0.928502 0.25885
    outer loop
      vertex 13.4486 62.4835 -30.95
      vertex 13.3311 62.8931 -32.5401
      vertex 3.39999 59.6022 -30.95
    endloop
  endfacet
  facet normal -0.266259 0.928486 0.258883
    outer loop
      vertex 3.39999 59.6022 -30.95
      vertex 2 59.0892 -30.55
      vertex 4.06517 59.6887 -30.5761
    endloop
  endfacet
  facet normal -0.265411 0.927737 0.262414
    outer loop
      vertex 13.3304 62.8957 -32.55
      vertex 3.39999 59.6022 -30.95
      vertex 13.3311 62.8931 -32.5401
    endloop
  endfacet
  facet normal -0.266273 0.928493 0.258845
    outer loop
      vertex 3.39999 59.6022 -30.95
      vertex 0 59.0732 -32.55
      vertex 2 59.0892 -30.55
    endloop
  endfacet
  facet normal -0.266252 0.928513 0.258793
    outer loop
      vertex 0 59.0732 -32.55
      vertex 3.39999 59.6022 -30.95
      vertex 13.3304 62.8957 -32.55
    endloop
  endfacet
  facet normal -0.26624 0.928495 0.258869
    outer loop
      vertex 53.4561 74.3988 -32.5401
      vertex 33.6995 68.2904 -30.95
      vertex 53.5551 74.0537 -31.2005
    endloop
  endfacet
  facet normal -0.267034 0.929705 0.253655
    outer loop
      vertex 53.4554 74.4013 -32.55
      vertex 33.6995 68.2904 -30.95
      vertex 53.4561 74.3988 -32.5401
    endloop
  endfacet
  facet normal -0.266242 0.928504 0.258835
    outer loop
      vertex 21.9865 65.3778 -32.55
      vertex 33.6995 68.2904 -30.95
      vertex 53.4554 74.4013 -32.55
    endloop
  endfacet
  facet normal -0.266241 0.928509 0.258818
    outer loop
      vertex 33.6995 68.2904 -30.95
      vertex 21.9865 65.3778 -32.55
      vertex 22.1047 64.9657 -30.95
    endloop
  endfacet
  facet normal -0.266246 0.928504 0.258832
    outer loop
      vertex 93.5804 85.907 -32.55
      vertex 62.2031 76.5639 -31.3097
      vertex 93.6427 85.6897 -31.7064
    endloop
  endfacet
  facet normal -0.266244 0.928501 0.258844
    outer loop
      vertex 62.2031 76.5639 -31.3097
      vertex 93.5804 85.907 -32.55
      vertex 62.1115 76.8834 -32.55
    endloop
  endfacet
  facet normal -0.266253 0.928519 0.258768
    outer loop
      vertex 133.706 97.4101 -32.5401
      vertex 102.291 88.1999 -31.8155
      vertex 133.73 97.3256 -32.2122
    endloop
  endfacet
  facet normal -0.266018 0.927908 0.261191
    outer loop
      vertex 133.705 97.4126 -32.55
      vertex 102.291 88.1999 -31.8155
      vertex 133.706 97.4101 -32.5401
    endloop
  endfacet
  facet normal -0.266255 0.928523 0.258753
    outer loop
      vertex 102.291 88.1999 -31.8155
      vertex 133.705 97.4126 -32.55
      vertex 102.237 88.3891 -32.55
    endloop
  endfacet
  facet normal -0.266285 0.928498 0.258812
    outer loop
      vertex 0.744443 53.3832 -11.3714
      vertex 0 53.1697 -11.3714
      vertex 0 50 0
    endloop
  endfacet
  facet normal -0.266279 0.9285 0.25881
    outer loop
      vertex 2 59.0892 -30.55
      vertex 0 55.5943 -20.0695
      vertex 1.31388 55.9711 -20.0695
    endloop
  endfacet
  facet normal -0.266247 0.928507 0.258818
    outer loop
      vertex 0 55.5943 -20.0695
      vertex 2 59.0892 -30.55
      vertex 0 59.0732 -32.55
    endloop
  endfacet
  facet normal -0.266228 0.928513 0.258817
    outer loop
      vertex 0.744443 53.3832 -11.3714
      vertex 2 50.5735 0
      vertex 2 53.7432 -11.3714
    endloop
  endfacet
  facet normal -0.266249 0.928507 0.258817
    outer loop
      vertex 2 50.5735 0
      vertex 0.744443 53.3832 -11.3714
      vertex 0 50 0
    endloop
  endfacet
  facet normal -0.261631 0.929724 0.259157
    outer loop
      vertex 2 59.0892 -30.55
      vertex 1.99005 56.165 -20.0695
      vertex 2 56.1678 -20.0695
    endloop
  endfacet
  facet normal -0.26626 0.928505 0.258813
    outer loop
      vertex 1.99005 56.165 -20.0695
      vertex 2 59.0892 -30.55
      vertex 1.31388 55.9711 -20.0695
    endloop
  endfacet
  facet normal -0.26625 0.928509 0.258811
    outer loop
      vertex 159.756 98.9789 -11.3714
      vertex 158.5 95.4491 0
      vertex 160.5 96.0226 0
    endloop
  endfacet
  facet normal -0.26614 0.928534 0.258831
    outer loop
      vertex 158.5 95.4491 0
      vertex 159.756 98.9789 -11.3714
      vertex 158.5 98.6189 -11.3714
    endloop
  endfacet
  facet normal -0.26661 0.928397 0.25884
    outer loop
      vertex 159.186 101.24 -20.0695
      vertex 158.5 103.965 -30.55
      vertex 158.5 101.043 -20.0695
    endloop
  endfacet
  facet normal -0.00486939 0.0173037 -0.999838
    outer loop
      vertex 1.99005 56.165 -20.0695
      vertex 2 58.3115 -20.0324
      vertex 2 56.1678 -20.0695
    endloop
  endfacet
  facet normal -0.00496197 0.0173042 -0.999838
    outer loop
      vertex 2 58.3115 -20.0324
      vertex 1.99005 56.165 -20.0695
      vertex 0 57.738 -20.0324
    endloop
  endfacet
  facet normal -0.00496212 0.017304 -0.999838
    outer loop
      vertex 1.31388 55.9711 -20.0695
      vertex 0 57.738 -20.0324
      vertex 1.99005 56.165 -20.0695
    endloop
  endfacet
  facet normal -0.00496243 0.0173037 -0.999838
    outer loop
      vertex 0 57.738 -20.0324
      vertex 1.31388 55.9711 -20.0695
      vertex 0 55.5943 -20.0695
    endloop
  endfacet
  facet normal -0.00519038 0.0173013 -0.999837
    outer loop
      vertex 160.49 101.614 -20.0695
      vertex 160.5 103.761 -20.0324
      vertex 160.5 101.617 -20.0695
    endloop
  endfacet
  facet normal -0.00496517 0.0173003 -0.999838
    outer loop
      vertex 160.5 103.761 -20.0324
      vertex 160.49 101.614 -20.0695
      vertex 158.5 103.187 -20.0324
    endloop
  endfacet
  facet normal -0.00496276 0.0173033 -0.999838
    outer loop
      vertex 159.186 101.24 -20.0695
      vertex 158.5 103.187 -20.0324
      vertex 160.49 101.614 -20.0695
    endloop
  endfacet
  facet normal -0.00496845 0.0173013 -0.999838
    outer loop
      vertex 158.5 103.187 -20.0324
      vertex 159.186 101.24 -20.0695
      vertex 158.5 101.043 -20.0695
    endloop
  endfacet
  facet normal 0.133501 -0.465567 0.874886
    outer loop
      vertex 0 55.0455 -10.3732
      vertex 2 53.7432 -11.3714
      vertex 2 55.619 -10.3732
    endloop
  endfacet
  facet normal 0.133493 -0.465577 0.874881
    outer loop
      vertex 2 53.7432 -11.3714
      vertex 0 55.0455 -10.3732
      vertex 0.744443 53.3832 -11.3714
    endloop
  endfacet
  facet normal 0.13352 -0.465566 0.874883
    outer loop
      vertex 0.744443 53.3832 -11.3714
      vertex 0 55.0455 -10.3732
      vertex 0 53.1697 -11.3714
    endloop
  endfacet
  facet normal 0.134998 -0.465511 0.874686
    outer loop
      vertex 160.5 101.068 -10.3732
      vertex 160.49 99.1895 -11.3714
      vertex 160.5 99.1924 -11.3714
    endloop
  endfacet
  facet normal 0.133396 -0.465606 0.874881
    outer loop
      vertex 160.49 99.1895 -11.3714
      vertex 160.5 101.068 -10.3732
      vertex 158.5 100.495 -10.3732
    endloop
  endfacet
  facet normal 0.133543 -0.465434 0.87495
    outer loop
      vertex 158.5 100.495 -10.3732
      vertex 159.756 98.9789 -11.3714
      vertex 160.49 99.1895 -11.3714
    endloop
  endfacet
  facet normal 0.133428 -0.465514 0.874925
    outer loop
      vertex 159.756 98.9789 -11.3714
      vertex 158.5 100.495 -10.3732
      vertex 158.5 98.6189 -11.3714
    endloop
  endfacet
  facet normal -0.266249 0.928506 0.258821
    outer loop
      vertex 2 55.619 -10.3732
      vertex 2 58.3115 -20.0324
      vertex 0 57.738 -20.0324
    endloop
  endfacet
  facet normal -0.266249 0.928506 0.258821
    outer loop
      vertex 2 55.619 -10.3732
      vertex 0 57.738 -20.0324
      vertex 0 55.0455 -10.3732
    endloop
  endfacet
  facet normal -0.266461 0.928437 0.25885
    outer loop
      vertex 160.5 101.068 -10.3732
      vertex 160.5 103.761 -20.0324
      vertex 158.5 103.187 -20.0324
    endloop
  endfacet
  facet normal -0.266037 0.928575 0.258792
    outer loop
      vertex 160.5 101.068 -10.3732
      vertex 158.5 103.187 -20.0324
      vertex 158.5 100.495 -10.3732
    endloop
  endfacet
  facet normal 0.997102 0.0433543 -0.0625199
    outer loop
      vertex 22.0418 66.9901 -30.55
      vertex 21.9865 65.3778 -32.55
      vertex 21.894 67.5052 -32.55
    endloop
  endfacet
  facet normal 0.997104 0.0433304 -0.0625008
    outer loop
      vertex 22.0418 66.9901 -30.55
      vertex 22.1047 64.9657 -30.95
      vertex 21.9865 65.3778 -32.55
    endloop
  endfacet
  facet normal 0.997113 0.0433059 -0.062375
    outer loop
      vertex 22.1047 64.9657 -30.95
      vertex 22.0418 66.9901 -30.55
      vertex 22.1342 64.8626 -30.55
    endloop
  endfacet
  facet normal -0.868546 -0.491656 -0.0624666
    outer loop
      vertex 13.4486 62.4835 -30.95
      vertex 12.4291 64.2337 -30.55
      vertex 13.3311 62.8931 -32.5401
    endloop
  endfacet
  facet normal -0.868549 -0.491641 -0.0625419
    outer loop
      vertex 12.4291 64.2337 -30.55
      vertex 13.4486 62.4835 -30.95
      vertex 13.4781 62.3805 -30.55
    endloop
  endfacet
  facet normal -0.868257 -0.491475 -0.0676824
    outer loop
      vertex 13.3311 62.8931 -32.5401
      vertex 12.2814 64.7489 -32.55
      vertex 13.3304 62.8957 -32.55
    endloop
  endfacet
  facet normal -0.868564 -0.491621 -0.0624981
    outer loop
      vertex 12.2814 64.7489 -32.55
      vertex 13.3311 62.8931 -32.5401
      vertex 12.4291 64.2337 -30.55
    endloop
  endfacet
  facet normal -0.266246 0.928509 0.258813
    outer loop
      vertex 22.0418 66.9901 -30.55
      vertex 21.894 67.5052 -32.55
      vertex 12.4291 64.2337 -30.55
    endloop
  endfacet
  facet normal -0.266237 0.928503 0.258844
    outer loop
      vertex 12.4291 64.2337 -30.55
      vertex 21.894 67.5052 -32.55
      vertex 12.2814 64.7489 -32.55
    endloop
  endfacet
  facet normal 0.997106 0.0433056 -0.0624829
    outer loop
      vertex 62.1668 78.4958 -30.55
      vertex 62.1115 76.8834 -32.55
      vertex 62.0191 79.0109 -32.55
    endloop
  endfacet
  facet normal 0.997106 0.0433065 -0.0624837
    outer loop
      vertex 62.1668 78.4958 -30.55
      vertex 62.2031 76.5639 -31.3097
      vertex 62.1115 76.8834 -32.55
    endloop
  endfacet
  facet normal 0.997098 0.0433433 -0.0625778
    outer loop
      vertex 62.1668 78.4958 -30.55
      vertex 62.2297 76.4713 -30.95
      vertex 62.2031 76.5639 -31.3097
    endloop
  endfacet
  facet normal 0.997112 0.0433058 -0.0623858
    outer loop
      vertex 62.2297 76.4713 -30.95
      vertex 62.1668 78.4958 -30.55
      vertex 62.2592 76.3683 -30.55
    endloop
  endfacet
  facet normal -0.868547 -0.491653 -0.0624689
    outer loop
      vertex 53.5551 74.0537 -31.2005
      vertex 52.5541 75.7394 -30.55
      vertex 53.4561 74.3988 -32.5401
    endloop
  endfacet
  facet normal -0.868545 -0.491659 -0.0624508
    outer loop
      vertex 53.5736 73.9892 -30.95
      vertex 52.5541 75.7394 -30.55
      vertex 53.5551 74.0537 -31.2005
    endloop
  endfacet
  facet normal -0.868549 -0.491641 -0.0625419
    outer loop
      vertex 52.5541 75.7394 -30.55
      vertex 53.5736 73.9892 -30.95
      vertex 53.6031 73.8862 -30.55
    endloop
  endfacet
  facet normal -0.868539 -0.491635 -0.0627383
    outer loop
      vertex 53.4561 74.3988 -32.5401
      vertex 52.4064 76.2545 -32.55
      vertex 53.4554 74.4013 -32.55
    endloop
  endfacet
  facet normal -0.868553 -0.491641 -0.0624796
    outer loop
      vertex 52.4064 76.2545 -32.55
      vertex 53.4561 74.3988 -32.5401
      vertex 52.5541 75.7394 -30.55
    endloop
  endfacet
  facet normal -0.266247 0.928512 0.258801
    outer loop
      vertex 62.1668 78.4958 -30.55
      vertex 62.0191 79.0109 -32.55
      vertex 52.5541 75.7394 -30.55
    endloop
  endfacet
  facet normal -0.266247 0.928512 0.258801
    outer loop
      vertex 52.5541 75.7394 -30.55
      vertex 62.0191 79.0109 -32.55
      vertex 52.4064 76.2545 -32.55
    endloop
  endfacet
  facet normal 0.997094 0.0434222 -0.0626015
    outer loop
      vertex 102.291 88.1999 -31.8155
      vertex 102.144 90.5165 -32.55
      vertex 102.292 90.0014 -30.55
    endloop
  endfacet
  facet normal 0.997119 0.0435894 -0.0620794
    outer loop
      vertex 102.144 90.5165 -32.55
      vertex 102.291 88.1999 -31.8155
      vertex 102.237 88.3891 -32.55
    endloop
  endfacet
  facet normal 0.997098 0.0433905 -0.0625563
    outer loop
      vertex 102.292 90.0014 -30.55
      vertex 102.355 87.977 -30.95
      vertex 102.291 88.1999 -31.8155
    endloop
  endfacet
  facet normal 0.997195 0.0431219 -0.0611819
    outer loop
      vertex 102.355 87.977 -30.95
      vertex 102.292 90.0014 -30.55
      vertex 102.384 87.8739 -30.55
    endloop
  endfacet
  facet normal -0.868552 -0.491642 -0.0624976
    outer loop
      vertex 93.6427 85.6897 -31.7064
      vertex 92.5314 87.7602 -32.55
      vertex 93.5804 85.907 -32.55
    endloop
  endfacet
  facet normal -0.86855 -0.491644 -0.0625051
    outer loop
      vertex 92.5314 87.7602 -32.55
      vertex 93.6427 85.6897 -31.7064
      vertex 92.6791 87.245 -30.55
    endloop
  endfacet
  facet normal -0.868533 -0.491683 -0.0624389
    outer loop
      vertex 93.6986 85.4949 -30.95
      vertex 92.6791 87.245 -30.55
      vertex 93.6427 85.6897 -31.7064
    endloop
  endfacet
  facet normal -0.868543 -0.491637 -0.0626644
    outer loop
      vertex 92.6791 87.245 -30.55
      vertex 93.6986 85.4949 -30.95
      vertex 93.7281 85.3918 -30.55
    endloop
  endfacet
  facet normal -0.266239 0.928504 0.258838
    outer loop
      vertex 102.144 90.5165 -32.55
      vertex 92.6791 87.245 -30.55
      vertex 102.292 90.0014 -30.55
    endloop
  endfacet
  facet normal -0.266237 0.928503 0.258844
    outer loop
      vertex 92.6791 87.245 -30.55
      vertex 102.144 90.5165 -32.55
      vertex 92.5314 87.7602 -32.55
    endloop
  endfacet
  facet normal 0.997098 0.0432452 -0.0626496
    outer loop
      vertex 142.362 99.8922 -32.54
      vertex 142.269 102.022 -32.55
      vertex 142.417 101.507 -30.55
    endloop
  endfacet
  facet normal 0.998986 0.0436731 0.0109183
    outer loop
      vertex 142.269 102.022 -32.55
      vertex 142.362 99.8922 -32.54
      vertex 142.362 99.8947 -32.55
    endloop
  endfacet
  facet normal 0.997173 0.0424491 -0.0620057
    outer loop
      vertex 142.417 101.507 -30.55
      vertex 142.378 99.8358 -32.3213
      vertex 142.362 99.8922 -32.54
    endloop
  endfacet
  facet normal 0.997068 0.0434708 -0.0629673
    outer loop
      vertex 142.417 101.507 -30.55
      vertex 142.48 99.4826 -30.95
      vertex 142.378 99.8358 -32.3213
    endloop
  endfacet
  facet normal 0.997194 0.0431239 -0.0611922
    outer loop
      vertex 142.48 99.4826 -30.95
      vertex 142.417 101.507 -30.55
      vertex 142.509 99.3796 -30.55
    endloop
  endfacet
  facet normal -0.868823 -0.491102 -0.0629654
    outer loop
      vertex 133.73 97.3256 -32.2122
      vertex 132.804 98.7507 -30.55
      vertex 133.706 97.4101 -32.5401
    endloop
  endfacet
  facet normal -0.868422 -0.491931 -0.0620307
    outer loop
      vertex 133.824 97.0005 -30.95
      vertex 132.804 98.7507 -30.55
      vertex 133.73 97.3256 -32.2122
    endloop
  endfacet
  facet normal -0.86849 -0.491607 -0.0636233
    outer loop
      vertex 132.804 98.7507 -30.55
      vertex 133.824 97.0005 -30.95
      vertex 133.853 96.8975 -30.55
    endloop
  endfacet
  facet normal -0.869674 -0.492277 -0.0364666
    outer loop
      vertex 133.706 97.4101 -32.5401
      vertex 132.656 99.2658 -32.55
      vertex 133.705 97.4126 -32.55
    endloop
  endfacet
  facet normal -0.868499 -0.49175 -0.0623814
    outer loop
      vertex 132.656 99.2658 -32.55
      vertex 133.706 97.4101 -32.5401
      vertex 132.804 98.7507 -30.55
    endloop
  endfacet
  facet normal -0.266231 0.928518 0.258795
    outer loop
      vertex 142.417 101.507 -30.55
      vertex 142.269 102.022 -32.55
      vertex 132.804 98.7507 -30.55
    endloop
  endfacet
  facet normal -0.266219 0.92851 0.258838
    outer loop
      vertex 132.804 98.7507 -30.55
      vertex 142.269 102.022 -32.55
      vertex 132.656 99.2658 -32.55
    endloop
  endfacet
endsolid OpenSCAD_Model
